<?xml version="1.0" encoding="UTF-8"?>
<svg xmlns="http://www.w3.org/2000/svg" xmlns:xlink="http://www.w3.org/1999/xlink" width="147" zoomAndPan="magnify" viewBox="0 0 110.25 30.000001" height="40" preserveAspectRatio="xMidYMid meet" version="1.0">
  <defs>
    <clipPath id="8e915d38ee">
      <path d="M 5 5 L 104.953125 5 L 104.953125 25.824219 L 5 25.824219 Z M 5 5 " clip-rule="nonzero"></path>
    </clipPath>
    <clipPath id="c36c8f8281">
      <path d="M 60 3.324219 L 77 3.324219 L 77 25.824219 L 60 25.824219 Z M 60 3.324219 " clip-rule="nonzero"></path>
    </clipPath>
    <clipPath id="ecdb105e76">
      <path d="M 76.558594 25.601562 C 69.835938 27.191406 74.328125 19.652344 68.652344 19.652344 C 62.972656 19.652344 67.070312 26 60.347656 25.601562 C 60.347656 17.058594 60.742188 2.199219 68.652344 3.390625 C 77.347656 2.199219 76.558594 17.058594 76.558594 25.601562 Z M 76.558594 25.601562 " clip-rule="nonzero"></path>
    </clipPath>
    <linearGradient x1="89.595001" gradientTransform="matrix(0.790707, 0, 0, -0.793315, -2.38071, 32.675698)" y1="36.999998" x2="89.595001" gradientUnits="userSpaceOnUse" y2="8.638001" id="86aa9410cc">
      <stop stop-opacity="1" stop-color="rgb(86.698914%, 97.299194%, 96.499634%)" offset="0"></stop>
      <stop stop-opacity="1" stop-color="rgb(86.698914%, 97.299194%, 96.499634%)" offset="0.25"></stop>
      <stop stop-opacity="1" stop-color="rgb(86.698914%, 97.299194%, 96.499634%)" offset="0.3125"></stop>
      <stop stop-opacity="1" stop-color="rgb(86.698914%, 97.299194%, 96.499634%)" offset="0.34375"></stop>
      <stop stop-opacity="1" stop-color="rgb(86.698914%, 97.299194%, 96.499634%)" offset="0.359375"></stop>
      <stop stop-opacity="1" stop-color="rgb(86.698914%, 97.299194%, 96.499634%)" offset="0.367188"></stop>
      <stop stop-opacity="1" stop-color="rgb(86.33728%, 97.117615%, 96.311951%)" offset="0.371094"></stop>
      <stop stop-opacity="1" stop-color="rgb(85.977173%, 96.937561%, 96.124268%)" offset="0.375"></stop>
      <stop stop-opacity="1" stop-color="rgb(85.386658%, 96.643066%, 95.817566%)" offset="0.378906"></stop>
      <stop stop-opacity="1" stop-color="rgb(84.797668%, 96.348572%, 95.510864%)" offset="0.382812"></stop>
      <stop stop-opacity="1" stop-color="rgb(84.207153%, 96.054077%, 95.204163%)" offset="0.386719"></stop>
      <stop stop-opacity="1" stop-color="rgb(83.618164%, 95.759583%, 94.898987%)" offset="0.390625"></stop>
      <stop stop-opacity="1" stop-color="rgb(83.027649%, 95.463562%, 94.592285%)" offset="0.394531"></stop>
      <stop stop-opacity="1" stop-color="rgb(82.43866%, 95.169067%, 94.285583%)" offset="0.398438"></stop>
      <stop stop-opacity="1" stop-color="rgb(81.84967%, 94.874573%, 93.978882%)" offset="0.402344"></stop>
      <stop stop-opacity="1" stop-color="rgb(81.260681%, 94.580078%, 93.673706%)" offset="0.40625"></stop>
      <stop stop-opacity="1" stop-color="rgb(80.670166%, 94.284058%, 93.367004%)" offset="0.410156"></stop>
      <stop stop-opacity="1" stop-color="rgb(80.081177%, 93.989563%, 93.060303%)" offset="0.414063"></stop>
      <stop stop-opacity="1" stop-color="rgb(79.490662%, 93.695068%, 92.753601%)" offset="0.417969"></stop>
      <stop stop-opacity="1" stop-color="rgb(78.901672%, 93.400574%, 92.446899%)" offset="0.421875"></stop>
      <stop stop-opacity="1" stop-color="rgb(78.311157%, 93.106079%, 92.140198%)" offset="0.425781"></stop>
      <stop stop-opacity="1" stop-color="rgb(77.722168%, 92.811584%, 91.835022%)" offset="0.429688"></stop>
      <stop stop-opacity="1" stop-color="rgb(77.131653%, 92.515564%, 91.52832%)" offset="0.433594"></stop>
      <stop stop-opacity="1" stop-color="rgb(76.542664%, 92.221069%, 91.221619%)" offset="0.4375"></stop>
      <stop stop-opacity="1" stop-color="rgb(75.953674%, 91.926575%, 90.914917%)" offset="0.441406"></stop>
      <stop stop-opacity="1" stop-color="rgb(75.364685%, 91.63208%, 90.609741%)" offset="0.445313"></stop>
      <stop stop-opacity="1" stop-color="rgb(74.77417%, 91.33606%, 90.30304%)" offset="0.449219"></stop>
      <stop stop-opacity="1" stop-color="rgb(74.185181%, 91.041565%, 89.996338%)" offset="0.453125"></stop>
      <stop stop-opacity="1" stop-color="rgb(73.594666%, 90.74707%, 89.689636%)" offset="0.457031"></stop>
      <stop stop-opacity="1" stop-color="rgb(73.005676%, 90.452576%, 89.38446%)" offset="0.460938"></stop>
      <stop stop-opacity="1" stop-color="rgb(72.415161%, 90.158081%, 89.077759%)" offset="0.464844"></stop>
      <stop stop-opacity="1" stop-color="rgb(71.826172%, 89.863586%, 88.771057%)" offset="0.46875"></stop>
      <stop stop-opacity="1" stop-color="rgb(71.237183%, 89.567566%, 88.464355%)" offset="0.472656"></stop>
      <stop stop-opacity="1" stop-color="rgb(70.648193%, 89.273071%, 88.15918%)" offset="0.476562"></stop>
      <stop stop-opacity="1" stop-color="rgb(70.057678%, 88.978577%, 87.852478%)" offset="0.480469"></stop>
      <stop stop-opacity="1" stop-color="rgb(69.468689%, 88.684082%, 87.545776%)" offset="0.484375"></stop>
      <stop stop-opacity="1" stop-color="rgb(68.878174%, 88.388062%, 87.239075%)" offset="0.488281"></stop>
      <stop stop-opacity="1" stop-color="rgb(68.289185%, 88.093567%, 86.933899%)" offset="0.492188"></stop>
      <stop stop-opacity="1" stop-color="rgb(67.698669%, 87.799072%, 86.627197%)" offset="0.496094"></stop>
      <stop stop-opacity="1" stop-color="rgb(67.10968%, 87.504578%, 86.320496%)" offset="0.5"></stop>
      <stop stop-opacity="1" stop-color="rgb(66.519165%, 87.210083%, 86.013794%)" offset="0.503906"></stop>
      <stop stop-opacity="1" stop-color="rgb(65.930176%, 86.915588%, 85.707092%)" offset="0.507813"></stop>
      <stop stop-opacity="1" stop-color="rgb(65.341187%, 86.619568%, 85.400391%)" offset="0.511719"></stop>
      <stop stop-opacity="1" stop-color="rgb(64.752197%, 86.325073%, 85.095215%)" offset="0.515625"></stop>
      <stop stop-opacity="1" stop-color="rgb(64.161682%, 86.030579%, 84.788513%)" offset="0.519531"></stop>
      <stop stop-opacity="1" stop-color="rgb(63.572693%, 85.736084%, 84.481812%)" offset="0.523438"></stop>
      <stop stop-opacity="1" stop-color="rgb(62.982178%, 85.440063%, 84.17511%)" offset="0.527344"></stop>
      <stop stop-opacity="1" stop-color="rgb(62.393188%, 85.145569%, 83.869934%)" offset="0.53125"></stop>
      <stop stop-opacity="1" stop-color="rgb(61.802673%, 84.851074%, 83.563232%)" offset="0.535156"></stop>
      <stop stop-opacity="1" stop-color="rgb(61.213684%, 84.55658%, 83.256531%)" offset="0.539062"></stop>
      <stop stop-opacity="1" stop-color="rgb(60.623169%, 84.262085%, 82.949829%)" offset="0.542969"></stop>
      <stop stop-opacity="1" stop-color="rgb(60.03418%, 83.96759%, 82.644653%)" offset="0.546875"></stop>
      <stop stop-opacity="1" stop-color="rgb(59.44519%, 83.67157%, 82.337952%)" offset="0.550781"></stop>
      <stop stop-opacity="1" stop-color="rgb(58.856201%, 83.377075%, 82.03125%)" offset="0.554688"></stop>
      <stop stop-opacity="1" stop-color="rgb(58.265686%, 83.082581%, 81.724548%)" offset="0.558594"></stop>
      <stop stop-opacity="1" stop-color="rgb(57.676697%, 82.788086%, 81.419373%)" offset="0.5625"></stop>
      <stop stop-opacity="1" stop-color="rgb(57.086182%, 82.492065%, 81.112671%)" offset="0.566406"></stop>
      <stop stop-opacity="1" stop-color="rgb(56.497192%, 82.197571%, 80.805969%)" offset="0.570312"></stop>
      <stop stop-opacity="1" stop-color="rgb(55.906677%, 81.903076%, 80.499268%)" offset="0.574219"></stop>
      <stop stop-opacity="1" stop-color="rgb(55.317688%, 81.608582%, 80.194092%)" offset="0.578125"></stop>
      <stop stop-opacity="1" stop-color="rgb(54.727173%, 81.314087%, 79.88739%)" offset="0.582031"></stop>
      <stop stop-opacity="1" stop-color="rgb(54.138184%, 81.019592%, 79.580688%)" offset="0.585938"></stop>
      <stop stop-opacity="1" stop-color="rgb(53.549194%, 80.723572%, 79.273987%)" offset="0.589844"></stop>
      <stop stop-opacity="1" stop-color="rgb(52.960205%, 80.429077%, 78.967285%)" offset="0.59375"></stop>
      <stop stop-opacity="1" stop-color="rgb(52.36969%, 80.134583%, 78.660583%)" offset="0.597656"></stop>
      <stop stop-opacity="1" stop-color="rgb(51.780701%, 79.840088%, 78.355408%)" offset="0.601562"></stop>
      <stop stop-opacity="1" stop-color="rgb(51.190186%, 79.544067%, 78.048706%)" offset="0.605469"></stop>
      <stop stop-opacity="1" stop-color="rgb(50.601196%, 79.249573%, 77.742004%)" offset="0.609375"></stop>
      <stop stop-opacity="1" stop-color="rgb(50.010681%, 78.955078%, 77.435303%)" offset="0.613281"></stop>
      <stop stop-opacity="1" stop-color="rgb(49.421692%, 78.660583%, 77.130127%)" offset="0.617188"></stop>
      <stop stop-opacity="1" stop-color="rgb(48.832703%, 78.366089%, 76.823425%)" offset="0.621094"></stop>
      <stop stop-opacity="1" stop-color="rgb(48.243713%, 78.071594%, 76.516724%)" offset="0.625"></stop>
      <stop stop-opacity="1" stop-color="rgb(47.653198%, 77.775574%, 76.210022%)" offset="0.628906"></stop>
      <stop stop-opacity="1" stop-color="rgb(47.064209%, 77.481079%, 75.904846%)" offset="0.632813"></stop>
      <stop stop-opacity="1" stop-color="rgb(46.473694%, 77.186584%, 75.598145%)" offset="0.636719"></stop>
      <stop stop-opacity="1" stop-color="rgb(45.884705%, 76.89209%, 75.291443%)" offset="0.640625"></stop>
      <stop stop-opacity="1" stop-color="rgb(45.294189%, 76.597595%, 74.984741%)" offset="0.644531"></stop>
      <stop stop-opacity="1" stop-color="rgb(44.7052%, 76.303101%, 74.679565%)" offset="0.648438"></stop>
      <stop stop-opacity="1" stop-color="rgb(44.114685%, 76.00708%, 74.372864%)" offset="0.652344"></stop>
      <stop stop-opacity="1" stop-color="rgb(43.525696%, 75.712585%, 74.066162%)" offset="0.65625"></stop>
      <stop stop-opacity="1" stop-color="rgb(42.936707%, 75.418091%, 73.75946%)" offset="0.660156"></stop>
      <stop stop-opacity="1" stop-color="rgb(42.347717%, 75.123596%, 73.454285%)" offset="0.664063"></stop>
      <stop stop-opacity="1" stop-color="rgb(41.757202%, 74.827576%, 73.147583%)" offset="0.667969"></stop>
      <stop stop-opacity="1" stop-color="rgb(41.168213%, 74.533081%, 72.840881%)" offset="0.671875"></stop>
      <stop stop-opacity="1" stop-color="rgb(40.577698%, 74.238586%, 72.53418%)" offset="0.675781"></stop>
      <stop stop-opacity="1" stop-color="rgb(39.988708%, 73.944092%, 72.227478%)" offset="0.679688"></stop>
      <stop stop-opacity="1" stop-color="rgb(39.398193%, 73.649597%, 71.920776%)" offset="0.683594"></stop>
      <stop stop-opacity="1" stop-color="rgb(38.809204%, 73.355103%, 71.615601%)" offset="0.6875"></stop>
      <stop stop-opacity="1" stop-color="rgb(38.218689%, 73.059082%, 71.308899%)" offset="0.691406"></stop>
      <stop stop-opacity="1" stop-color="rgb(37.6297%, 72.764587%, 71.002197%)" offset="0.695312"></stop>
      <stop stop-opacity="1" stop-color="rgb(37.04071%, 72.470093%, 70.695496%)" offset="0.699219"></stop>
      <stop stop-opacity="1" stop-color="rgb(36.451721%, 72.175598%, 70.39032%)" offset="0.703125"></stop>
      <stop stop-opacity="1" stop-color="rgb(35.861206%, 71.879578%, 70.083618%)" offset="0.707031"></stop>
      <stop stop-opacity="1" stop-color="rgb(35.272217%, 71.585083%, 69.776917%)" offset="0.710938"></stop>
      <stop stop-opacity="1" stop-color="rgb(34.681702%, 71.290588%, 69.470215%)" offset="0.714844"></stop>
      <stop stop-opacity="1" stop-color="rgb(34.092712%, 70.996094%, 69.165039%)" offset="0.71875"></stop>
      <stop stop-opacity="1" stop-color="rgb(33.502197%, 70.701599%, 68.858337%)" offset="0.722656"></stop>
      <stop stop-opacity="1" stop-color="rgb(32.913208%, 70.407104%, 68.551636%)" offset="0.726563"></stop>
      <stop stop-opacity="1" stop-color="rgb(32.324219%, 70.111084%, 68.244934%)" offset="0.730469"></stop>
      <stop stop-opacity="1" stop-color="rgb(31.735229%, 69.816589%, 67.939758%)" offset="0.734375"></stop>
      <stop stop-opacity="1" stop-color="rgb(31.144714%, 69.522095%, 67.633057%)" offset="0.738281"></stop>
      <stop stop-opacity="1" stop-color="rgb(30.555725%, 69.2276%, 67.326355%)" offset="0.742188"></stop>
      <stop stop-opacity="1" stop-color="rgb(29.96521%, 68.93158%, 67.019653%)" offset="0.746094"></stop>
      <stop stop-opacity="1" stop-color="rgb(29.376221%, 68.637085%, 66.712952%)" offset="0.75"></stop>
      <stop stop-opacity="1" stop-color="rgb(28.785706%, 68.34259%, 66.40625%)" offset="0.753906"></stop>
      <stop stop-opacity="1" stop-color="rgb(28.196716%, 68.048096%, 66.101074%)" offset="0.757813"></stop>
      <stop stop-opacity="1" stop-color="rgb(27.606201%, 67.753601%, 65.794373%)" offset="0.761719"></stop>
      <stop stop-opacity="1" stop-color="rgb(27.017212%, 67.459106%, 65.487671%)" offset="0.765625"></stop>
      <stop stop-opacity="1" stop-color="rgb(26.428223%, 67.163086%, 65.180969%)" offset="0.769531"></stop>
      <stop stop-opacity="1" stop-color="rgb(25.839233%, 66.868591%, 64.875793%)" offset="0.773438"></stop>
      <stop stop-opacity="1" stop-color="rgb(25.668335%, 66.783142%, 64.787292%)" offset="0.78125"></stop>
      <stop stop-opacity="1" stop-color="rgb(25.498962%, 66.699219%, 64.698792%)" offset="0.8125"></stop>
      <stop stop-opacity="1" stop-color="rgb(25.498962%, 66.699219%, 64.698792%)" offset="0.875"></stop>
      <stop stop-opacity="1" stop-color="rgb(25.498962%, 66.699219%, 64.698792%)" offset="1"></stop>
    </linearGradient>
    <clipPath id="58a8f7b3fa">
      <path d="M 59 3.324219 L 78 3.324219 L 78 19 L 59 19 Z M 59 3.324219 " clip-rule="nonzero"></path>
    </clipPath>
    <clipPath id="1c01f48198">
      <path d="M 60 3.324219 L 77 3.324219 L 77 18 L 60 18 Z M 60 3.324219 " clip-rule="nonzero"></path>
    </clipPath>
  </defs>
  <g clip-path="url(#8e915d38ee)">
    <path fill="#41aaa5" d="M 5.351562 8.542969 L 5.351562 5.941406 C 5.335938 5.808594 5.371094 5.695312 5.46875 5.597656 C 5.5625 5.503906 5.675781 5.464844 5.808594 5.484375 L 7.660156 5.484375 C 7.792969 5.464844 7.90625 5.503906 8.003906 5.597656 C 8.097656 5.695312 8.136719 5.808594 8.117188 5.941406 L 8.117188 8.542969 C 8.117188 8.867188 7.964844 9.027344 7.660156 9.027344 L 5.8125 9.027344 C 5.503906 9.027344 5.351562 8.867188 5.351562 8.542969 Z M 5.351562 25.050781 L 5.351562 11.457031 C 5.351562 11.132812 5.503906 10.96875 5.808594 10.96875 L 7.628906 10.96875 C 7.769531 10.949219 7.890625 10.992188 7.988281 11.09375 C 8.089844 11.191406 8.132812 11.316406 8.109375 11.457031 L 8.109375 25.050781 C 8.125 25.199219 8.089844 25.328125 7.996094 25.445312 C 7.894531 25.519531 7.785156 25.546875 7.660156 25.535156 L 5.84375 25.535156 C 5.777344 25.546875 5.710938 25.542969 5.644531 25.519531 C 5.582031 25.5 5.523438 25.464844 5.476562 25.417969 C 5.425781 25.371094 5.394531 25.3125 5.371094 25.25 C 5.347656 25.183594 5.34375 25.117188 5.351562 25.050781 Z M 17.261719 25.535156 L 15.8125 25.535156 C 15.230469 25.574219 14.660156 25.492188 14.113281 25.296875 C 13.5625 25.097656 13.074219 24.796875 12.648438 24.394531 C 11.851562 23.445312 11.492188 22.347656 11.566406 21.109375 L 11.566406 15.398438 C 11.484375 14.15625 11.84375 13.058594 12.648438 12.113281 C 13.074219 11.710938 13.5625 11.410156 14.113281 11.210938 C 14.660156 11.011719 15.230469 10.933594 15.8125 10.96875 L 17.261719 10.96875 C 18.726562 10.96875 19.671875 11.476562 20.109375 12.484375 L 20.222656 12.484375 L 20.222656 5.941406 C 20.203125 5.800781 20.246094 5.679688 20.34375 5.578125 C 20.445312 5.476562 20.566406 5.433594 20.707031 5.457031 L 22.527344 5.457031 C 22.667969 5.433594 22.789062 5.476562 22.890625 5.578125 C 22.992188 5.679688 23.03125 5.800781 23.011719 5.941406 L 23.011719 25.050781 C 23.03125 25.191406 22.992188 25.3125 22.890625 25.414062 C 22.789062 25.515625 22.667969 25.554688 22.527344 25.535156 L 20.707031 25.535156 C 20.566406 25.554688 20.445312 25.515625 20.34375 25.414062 C 20.246094 25.3125 20.203125 25.191406 20.222656 25.050781 L 20.222656 24.019531 L 20.109375 24.019531 C 19.671875 25.03125 18.726562 25.535156 17.261719 25.535156 Z M 20.222656 20.679688 L 20.222656 15.824219 C 20.222656 14.207031 19.445312 13.398438 17.890625 13.398438 L 16.382812 13.398438 C 15.015625 13.398438 14.332031 14.101562 14.332031 15.511719 L 14.332031 20.996094 C 14.332031 22.402344 15.015625 23.109375 16.382812 23.109375 L 17.890625 23.109375 C 19.445312 23.109375 20.222656 22.300781 20.222656 20.679688 Z M 36.863281 25.535156 L 30.714844 25.535156 C 30.113281 25.574219 29.527344 25.488281 28.960938 25.285156 C 28.390625 25.082031 27.886719 24.777344 27.441406 24.363281 C 27.042969 23.921875 26.746094 23.417969 26.546875 22.851562 C 26.351562 22.289062 26.269531 21.710938 26.304688 21.113281 L 26.304688 15.402344 C 26.265625 14.804688 26.34375 14.222656 26.542969 13.65625 C 26.742188 13.09375 27.039062 12.589844 27.441406 12.148438 C 27.886719 11.738281 28.390625 11.429688 28.960938 11.226562 C 29.527344 11.023438 30.113281 10.941406 30.714844 10.976562 L 33.050781 10.976562 C 33.652344 10.941406 34.238281 11.023438 34.804688 11.226562 C 35.375 11.429688 35.878906 11.738281 36.324219 12.148438 C 36.734375 12.585938 37.039062 13.085938 37.242188 13.652344 C 37.445312 14.21875 37.527344 14.800781 37.492188 15.402344 L 37.492188 19.027344 C 37.5 19.097656 37.496094 19.167969 37.472656 19.234375 C 37.449219 19.304688 37.414062 19.363281 37.363281 19.414062 C 37.3125 19.464844 37.253906 19.5 37.183594 19.523438 C 37.117188 19.546875 37.050781 19.550781 36.976562 19.542969 L 29.347656 19.542969 C 29.140625 19.542969 29.035156 19.636719 29.035156 19.828125 L 29.035156 21.054688 C 29.011719 21.195312 29.007812 21.339844 29.023438 21.480469 C 29.035156 21.625 29.0625 21.761719 29.109375 21.898438 C 29.152344 22.035156 29.214844 22.164062 29.289062 22.285156 C 29.363281 22.40625 29.453125 22.519531 29.554688 22.617188 C 29.652344 22.71875 29.765625 22.808594 29.886719 22.882812 C 30.007812 22.957031 30.136719 23.019531 30.269531 23.0625 C 30.40625 23.109375 30.542969 23.136719 30.6875 23.152344 C 30.828125 23.164062 30.96875 23.160156 31.109375 23.140625 L 36.859375 23.140625 C 36.933594 23.128906 37 23.136719 37.070312 23.160156 C 37.136719 23.179688 37.195312 23.21875 37.246094 23.269531 C 37.296875 23.320312 37.332031 23.378906 37.355469 23.445312 C 37.378906 23.515625 37.382812 23.582031 37.375 23.652344 L 37.375 25.082031 C 37.375 25.382812 37.207031 25.535156 36.863281 25.535156 Z M 29.351562 17.597656 L 34.449219 17.597656 C 34.53125 17.609375 34.601562 17.585938 34.660156 17.523438 C 34.722656 17.464844 34.746094 17.394531 34.734375 17.3125 L 34.734375 15.484375 C 34.785156 14.894531 34.625 14.371094 34.25 13.914062 C 33.800781 13.515625 33.277344 13.347656 32.683594 13.402344 L 31.117188 13.402344 C 30.523438 13.347656 30 13.515625 29.550781 13.914062 C 29.175781 14.371094 29.015625 14.894531 29.066406 15.484375 L 29.066406 17.3125 C 29.054688 17.394531 29.078125 17.464844 29.136719 17.523438 C 29.195312 17.582031 29.265625 17.605469 29.347656 17.597656 Z M 41.992188 25.535156 L 39.828125 25.535156 C 39.410156 25.535156 39.304688 25.375 39.511719 25.050781 L 43.296875 18.109375 L 39.597656 11.457031 C 39.386719 11.132812 39.472656 10.96875 39.855469 10.96875 L 42.050781 10.96875 C 42.210938 10.960938 42.363281 11 42.5 11.089844 C 42.636719 11.179688 42.734375 11.300781 42.789062 11.457031 L 45.09375 16.367188 L 45.207031 16.367188 L 47.371094 11.457031 C 47.421875 11.304688 47.515625 11.183594 47.648438 11.09375 C 47.777344 11.003906 47.925781 10.960938 48.082031 10.96875 L 50.246094 10.96875 C 50.644531 10.96875 50.742188 11.132812 50.53125 11.457031 L 46.945312 18.078125 L 50.820312 25.046875 C 51.007812 25.371094 50.925781 25.53125 50.5625 25.53125 L 48.3125 25.53125 C 48.15625 25.539062 48.015625 25.496094 47.890625 25.40625 C 47.761719 25.316406 47.675781 25.195312 47.628906 25.046875 L 45.207031 19.992188 L 45.09375 19.992188 L 42.703125 25.046875 C 42.652344 25.199219 42.5625 25.320312 42.429688 25.410156 C 42.296875 25.503906 42.152344 25.542969 41.992188 25.535156 Z M 55.664062 25.535156 L 53.871094 25.535156 C 53.730469 25.554688 53.609375 25.515625 53.507812 25.414062 C 53.410156 25.3125 53.367188 25.191406 53.386719 25.050781 L 53.386719 5.941406 C 53.367188 5.800781 53.410156 5.679688 53.507812 5.578125 C 53.609375 5.476562 53.730469 5.433594 53.871094 5.457031 L 55.664062 5.457031 C 55.808594 5.433594 55.929688 5.476562 56.027344 5.578125 C 56.128906 5.679688 56.171875 5.800781 56.148438 5.941406 L 56.148438 25.050781 C 56.171875 25.191406 56.128906 25.3125 56.027344 25.414062 C 55.929688 25.515625 55.808594 25.554688 55.664062 25.535156 Z M 83.3125 23.109375 L 86.84375 23.109375 C 88.210938 23.109375 88.890625 22.402344 88.890625 20.996094 L 88.890625 15.398438 C 88.890625 13.988281 88.210938 13.285156 86.84375 13.285156 L 85.335938 13.285156 C 83.777344 13.285156 83 14.082031 83 15.683594 L 83 22.792969 C 82.988281 22.886719 83.011719 22.964844 83.078125 23.03125 C 83.144531 23.09375 83.222656 23.121094 83.3125 23.109375 Z M 80.238281 25.050781 L 80.238281 5.941406 C 80.21875 5.800781 80.257812 5.679688 80.359375 5.578125 C 80.460938 5.476562 80.582031 5.433594 80.722656 5.457031 L 82.515625 5.457031 C 82.65625 5.433594 82.777344 5.476562 82.878906 5.578125 C 82.980469 5.679688 83.019531 5.800781 83 5.941406 L 83 12.398438 L 83.113281 12.398438 C 83.589844 11.371094 84.546875 10.855469 85.988281 10.855469 L 87.242188 10.855469 C 87.84375 10.820312 88.429688 10.902344 88.996094 11.105469 C 89.566406 11.308594 90.070312 11.617188 90.515625 12.027344 C 90.925781 12.460938 91.230469 12.957031 91.433594 13.519531 C 91.636719 14.082031 91.71875 14.660156 91.683594 15.253906 L 91.683594 21.109375 C 91.714844 21.707031 91.632812 22.289062 91.429688 22.855469 C 91.226562 23.421875 90.921875 23.921875 90.515625 24.363281 C 90.070312 24.773438 89.566406 25.082031 88.996094 25.285156 C 88.429688 25.488281 87.84375 25.570312 87.242188 25.535156 L 80.722656 25.535156 C 80.582031 25.554688 80.460938 25.515625 80.359375 25.414062 C 80.257812 25.3125 80.21875 25.191406 80.238281 25.050781 Z M 100.152344 25.535156 L 94.914062 25.535156 C 94.773438 25.554688 94.652344 25.515625 94.550781 25.414062 C 94.453125 25.3125 94.410156 25.191406 94.429688 25.050781 L 94.429688 23.652344 C 94.429688 23.347656 94.59375 23.195312 94.914062 23.195312 L 99.699219 23.195312 C 100.933594 23.195312 101.550781 22.765625 101.550781 21.910156 L 101.550781 21.570312 C 101.535156 21.164062 101.40625 20.800781 101.160156 20.480469 C 100.914062 20.160156 100.597656 19.941406 100.210938 19.824219 L 97.109375 18.339844 C 96.292969 17.996094 95.589844 17.492188 95.003906 16.824219 C 94.527344 16.179688 94.308594 15.457031 94.347656 14.65625 C 94.347656 12.199219 95.703125 10.96875 98.417969 10.96875 L 103.144531 10.96875 C 103.449219 10.96875 103.597656 11.132812 103.597656 11.457031 L 103.597656 12.855469 C 103.597656 13.179688 103.449219 13.339844 103.144531 13.339844 L 98.988281 13.339844 C 98.519531 13.3125 98.082031 13.417969 97.679688 13.660156 C 97.375 13.824219 97.222656 14.082031 97.222656 14.429688 L 97.222656 14.746094 C 97.222656 15.355469 97.707031 15.890625 98.675781 16.347656 L 101.804688 17.945312 C 102.644531 18.253906 103.316406 18.777344 103.828125 19.515625 C 104.242188 20.230469 104.433594 21.003906 104.394531 21.828125 C 104.394531 24.300781 102.980469 25.535156 100.152344 25.535156 Z M 100.152344 25.535156 " fill-opacity="1" fill-rule="nonzero"></path>
  </g>
  <g clip-path="url(#c36c8f8281)">
    <g clip-path="url(#ecdb105e76)">
      <path fill="url(#86aa9410cc)" d="M 60.347656 25.824219 L 60.347656 3.324219 L 77.347656 3.324219 L 77.347656 25.824219 Z M 60.347656 25.824219 " fill-rule="nonzero"></path>
    </g>
  </g>
  <g clip-path="url(#58a8f7b3fa)">
    <path stroke-linecap="butt" transform="matrix(0.790707, 0, 0, 0.793315, -2.38071, -0.643531)" fill="none" stroke-linejoin="miter" d="M 95.926106 12.106753 C 95.960687 12.505593 95.955747 12.89951 95.916226 13.298351 C 95.871764 13.697191 95.792721 14.086184 95.669216 14.465329 C 95.550651 14.849397 95.397505 15.21377 95.204837 15.563371 C 95.012169 15.917896 94.78986 16.242878 94.53297 16.553087 C 94.27608 16.858372 93.989548 17.134114 93.678316 17.385236 C 93.367083 17.636358 93.03609 17.853012 92.680396 18.040122 C 92.324702 18.222309 91.959127 18.370028 91.573792 18.483279 C 91.188456 18.59653 90.79818 18.670389 90.398024 18.704857 C 90.002809 18.739325 89.602653 18.734401 89.207437 18.690085 C 88.812221 18.645769 88.421945 18.562062 88.04155 18.438963 C 87.661155 18.320788 87.29558 18.163221 86.944826 17.971187 C 86.594072 17.779153 86.268019 17.552651 85.961727 17.291681 C 85.655434 17.035635 85.378783 16.750045 85.126833 16.439836 C 84.879823 16.124703 84.662455 15.789874 84.479667 15.435349 C 84.29688 15.080824 84.148674 14.711527 84.03999 14.327458 C 83.931305 13.943389 83.857202 13.549472 83.827561 13.155556 C 83.79298 12.756715 83.79792 12.357875 83.842382 11.959034 C 83.891784 11.565117 83.975767 11.176125 84.094332 10.792056 C 84.217837 10.412911 84.375923 10.048538 84.573531 9.698937 C 84.766199 9.349336 84.993448 9.024355 85.250338 8.719069 C 85.512169 8.413784 85.7987 8.138042 86.109933 7.891844 C 86.426105 7.640722 86.757098 7.428992 87.112793 7.246806 C 87.468487 7.064619 87.839002 6.916901 88.224337 6.808573 C 88.609673 6.700246 88.999948 6.631311 89.400104 6.601767 C 89.79532 6.567299 90.190536 6.572223 90.580812 6.616539 C 90.976028 6.660855 91.361363 6.744562 91.741758 6.862737 C 92.117213 6.985836 92.482788 7.138479 92.828602 7.330513 C 93.174416 7.522547 93.500469 7.744126 93.801821 8.000171 C 94.103173 8.256217 94.379824 8.541807 94.626834 8.852016 C 94.873844 9.162226 95.091212 9.492131 95.26906 9.841732 C 95.451847 10.196257 95.600053 10.56063 95.708737 10.944698 C 95.817422 11.323843 95.891525 11.712836 95.926106 12.106753 Z M 95.926106 12.106753 " stroke="#1e1e1e" stroke-width="1" stroke-opacity="1" stroke-miterlimit="4"></path>
  </g>
  <path fill="#044044" d="M 69.441406 15.6875 C 69.441406 15.90625 69.363281 16.09375 69.210938 16.246094 C 69.054688 16.402344 68.871094 16.480469 68.652344 16.480469 C 68.433594 16.480469 68.246094 16.402344 68.089844 16.246094 C 67.9375 16.09375 67.859375 15.90625 67.859375 15.6875 C 67.859375 15.46875 67.9375 15.28125 68.089844 15.125 C 68.246094 14.972656 68.433594 14.894531 68.652344 14.894531 C 68.871094 14.894531 69.054688 14.972656 69.210938 15.125 C 69.363281 15.28125 69.441406 15.46875 69.441406 15.6875 Z M 69.441406 15.6875 " fill-opacity="1" fill-rule="nonzero"></path>
  <g clip-path="url(#1c01f48198)">
    <path stroke-linecap="butt" transform="matrix(0.790707, 0, 0, 0.793315, 5.353196, 3.323044)" fill="none" stroke-linejoin="miter" d="M 84.554363 7.584377 C 84.554363 8.180176 84.435798 8.756279 84.208549 9.307762 C 83.9813 9.859246 83.655247 10.346718 83.23533 10.765254 C 82.810473 11.188714 82.326333 11.513696 81.773031 11.740198 C 81.224669 11.971624 80.646666 12.084875 80.053842 12.084875 C 79.456078 12.084875 78.883015 11.971624 78.329713 11.740198 C 77.776411 11.513696 77.292272 11.188714 76.872355 10.765254 C 76.447498 10.346718 76.121445 9.859246 75.894195 9.307762 C 75.666946 8.756279 75.553322 8.180176 75.553322 7.584377 C 75.553322 6.988578 75.666946 6.412475 75.894195 5.860991 C 76.121445 5.309508 76.447498 4.82696 76.872355 4.4035 C 77.292272 3.980039 77.776411 3.655058 78.329713 3.428556 C 78.883015 3.19713 79.456078 3.083879 80.053842 3.083879 C 80.646666 3.083879 81.224669 3.19713 81.773031 3.428556 C 82.326333 3.655058 82.810473 3.980039 83.23533 4.4035 C 83.655247 4.82696 83.9813 5.309508 84.208549 5.860991 C 84.435798 6.412475 84.554363 6.988578 84.554363 7.584377 Z M 84.554363 7.584377 " stroke="#1e1e1e" stroke-width="1" stroke-opacity="1" stroke-miterlimit="4"></path>
  </g>
  <path fill="#044044" d="M 69.441406 18.066406 C 69.441406 18.285156 69.363281 18.472656 69.210938 18.628906 C 69.054688 18.78125 68.871094 18.859375 68.652344 18.859375 C 68.433594 18.859375 68.246094 18.78125 68.089844 18.628906 C 67.9375 18.472656 67.859375 18.285156 67.859375 18.066406 C 67.859375 17.847656 67.9375 17.660156 68.089844 17.503906 C 68.246094 17.351562 68.433594 17.273438 68.652344 17.273438 C 68.871094 17.273438 69.054688 17.351562 69.210938 17.503906 C 69.363281 17.660156 69.441406 17.847656 69.441406 18.066406 Z M 69.441406 18.066406 " fill-opacity="1" fill-rule="nonzero"></path>
</svg>
