<?xml version="1.0" encoding="UTF-8"?>
<svg xmlns="http://www.w3.org/2000/svg" xmlns:xlink="http://www.w3.org/1999/xlink" width="600" zoomAndPan="magnify" viewBox="0 0 450 449.999984" height="600" preserveAspectRatio="xMidYMid meet" version="1.0">
  <defs>
    <clipPath id="b20d232123">
      <path d="M 46.226562 64 L 403.976562 64 L 403.976562 419 L 46.226562 419 Z M 46.226562 64 " clip-rule="nonzero"></path>
    </clipPath>
    <clipPath id="3e2b118b49">
      <path d="M 80 27.136719 L 368 27.136719 L 368 423.136719 L 80 423.136719 Z M 80 27.136719 " clip-rule="nonzero"></path>
    </clipPath>
    <clipPath id="e35e604a6c">
      <path d="M 366.757812 419.269531 C 248.136719 447.195312 327.40625 314.550781 227.203125 314.550781 C 127.003906 314.550781 199.292969 426.25 80.671875 419.269531 C 80.671875 268.894531 87.652344 7.382812 227.203125 28.324219 C 380.714844 7.382812 366.757812 268.894531 366.757812 419.269531 Z M 366.757812 419.269531 " clip-rule="nonzero"></path>
    </clipPath>
    <linearGradient x1="89.595001" gradientTransform="matrix(13.955389, 0, 0, -13.962344, -1026.449785, 543.744545)" y1="36.999999" x2="89.595001" gradientUnits="userSpaceOnUse" y2="8.638001" id="b7a2f0625c">
      <stop stop-opacity="1" stop-color="rgb(86.698914%, 97.299194%, 96.499634%)" offset="0"></stop>
      <stop stop-opacity="1" stop-color="rgb(86.698914%, 97.299194%, 96.499634%)" offset="0.25"></stop>
      <stop stop-opacity="1" stop-color="rgb(86.698914%, 97.299194%, 96.499634%)" offset="0.3125"></stop>
      <stop stop-opacity="1" stop-color="rgb(86.698914%, 97.299194%, 96.499634%)" offset="0.34375"></stop>
      <stop stop-opacity="1" stop-color="rgb(86.698914%, 97.299194%, 96.499634%)" offset="0.359375"></stop>
      <stop stop-opacity="1" stop-color="rgb(86.698914%, 97.299194%, 96.499634%)" offset="0.367188"></stop>
      <stop stop-opacity="1" stop-color="rgb(86.33728%, 97.117615%, 96.311951%)" offset="0.371094"></stop>
      <stop stop-opacity="1" stop-color="rgb(85.977173%, 96.937561%, 96.124268%)" offset="0.375"></stop>
      <stop stop-opacity="1" stop-color="rgb(85.386658%, 96.643066%, 95.817566%)" offset="0.378906"></stop>
      <stop stop-opacity="1" stop-color="rgb(84.797668%, 96.348572%, 95.510864%)" offset="0.382813"></stop>
      <stop stop-opacity="1" stop-color="rgb(84.207153%, 96.054077%, 95.204163%)" offset="0.386719"></stop>
      <stop stop-opacity="1" stop-color="rgb(83.618164%, 95.759583%, 94.898987%)" offset="0.390625"></stop>
      <stop stop-opacity="1" stop-color="rgb(83.027649%, 95.463562%, 94.592285%)" offset="0.394531"></stop>
      <stop stop-opacity="1" stop-color="rgb(82.43866%, 95.169067%, 94.285583%)" offset="0.398438"></stop>
      <stop stop-opacity="1" stop-color="rgb(81.84967%, 94.874573%, 93.978882%)" offset="0.402344"></stop>
      <stop stop-opacity="1" stop-color="rgb(81.260681%, 94.580078%, 93.673706%)" offset="0.40625"></stop>
      <stop stop-opacity="1" stop-color="rgb(80.670166%, 94.284058%, 93.367004%)" offset="0.410156"></stop>
      <stop stop-opacity="1" stop-color="rgb(80.081177%, 93.989563%, 93.060303%)" offset="0.414062"></stop>
      <stop stop-opacity="1" stop-color="rgb(79.490662%, 93.695068%, 92.753601%)" offset="0.417969"></stop>
      <stop stop-opacity="1" stop-color="rgb(78.901672%, 93.400574%, 92.446899%)" offset="0.421875"></stop>
      <stop stop-opacity="1" stop-color="rgb(78.311157%, 93.106079%, 92.140198%)" offset="0.425781"></stop>
      <stop stop-opacity="1" stop-color="rgb(77.722168%, 92.811584%, 91.835022%)" offset="0.429688"></stop>
      <stop stop-opacity="1" stop-color="rgb(77.131653%, 92.515564%, 91.52832%)" offset="0.433594"></stop>
      <stop stop-opacity="1" stop-color="rgb(76.542664%, 92.221069%, 91.221619%)" offset="0.4375"></stop>
      <stop stop-opacity="1" stop-color="rgb(75.953674%, 91.926575%, 90.914917%)" offset="0.441406"></stop>
      <stop stop-opacity="1" stop-color="rgb(75.364685%, 91.63208%, 90.609741%)" offset="0.445312"></stop>
      <stop stop-opacity="1" stop-color="rgb(74.77417%, 91.33606%, 90.30304%)" offset="0.449219"></stop>
      <stop stop-opacity="1" stop-color="rgb(74.185181%, 91.041565%, 89.996338%)" offset="0.453125"></stop>
      <stop stop-opacity="1" stop-color="rgb(73.594666%, 90.74707%, 89.689636%)" offset="0.457031"></stop>
      <stop stop-opacity="1" stop-color="rgb(73.005676%, 90.452576%, 89.38446%)" offset="0.460938"></stop>
      <stop stop-opacity="1" stop-color="rgb(72.415161%, 90.158081%, 89.077759%)" offset="0.464844"></stop>
      <stop stop-opacity="1" stop-color="rgb(71.826172%, 89.863586%, 88.771057%)" offset="0.46875"></stop>
      <stop stop-opacity="1" stop-color="rgb(71.237183%, 89.567566%, 88.464355%)" offset="0.472656"></stop>
      <stop stop-opacity="1" stop-color="rgb(70.648193%, 89.273071%, 88.15918%)" offset="0.476562"></stop>
      <stop stop-opacity="1" stop-color="rgb(70.057678%, 88.978577%, 87.852478%)" offset="0.480469"></stop>
      <stop stop-opacity="1" stop-color="rgb(69.468689%, 88.684082%, 87.545776%)" offset="0.484375"></stop>
      <stop stop-opacity="1" stop-color="rgb(68.878174%, 88.388062%, 87.239075%)" offset="0.488281"></stop>
      <stop stop-opacity="1" stop-color="rgb(68.289185%, 88.093567%, 86.933899%)" offset="0.492188"></stop>
      <stop stop-opacity="1" stop-color="rgb(67.698669%, 87.799072%, 86.627197%)" offset="0.496094"></stop>
      <stop stop-opacity="1" stop-color="rgb(67.10968%, 87.504578%, 86.320496%)" offset="0.5"></stop>
      <stop stop-opacity="1" stop-color="rgb(66.519165%, 87.210083%, 86.013794%)" offset="0.503906"></stop>
      <stop stop-opacity="1" stop-color="rgb(65.930176%, 86.915588%, 85.707092%)" offset="0.507812"></stop>
      <stop stop-opacity="1" stop-color="rgb(65.341187%, 86.619568%, 85.400391%)" offset="0.511719"></stop>
      <stop stop-opacity="1" stop-color="rgb(64.752197%, 86.325073%, 85.095215%)" offset="0.515625"></stop>
      <stop stop-opacity="1" stop-color="rgb(64.161682%, 86.030579%, 84.788513%)" offset="0.519531"></stop>
      <stop stop-opacity="1" stop-color="rgb(63.572693%, 85.736084%, 84.481812%)" offset="0.523438"></stop>
      <stop stop-opacity="1" stop-color="rgb(62.982178%, 85.440063%, 84.17511%)" offset="0.527344"></stop>
      <stop stop-opacity="1" stop-color="rgb(62.393188%, 85.145569%, 83.869934%)" offset="0.53125"></stop>
      <stop stop-opacity="1" stop-color="rgb(61.802673%, 84.851074%, 83.563232%)" offset="0.535156"></stop>
      <stop stop-opacity="1" stop-color="rgb(61.213684%, 84.55658%, 83.256531%)" offset="0.539063"></stop>
      <stop stop-opacity="1" stop-color="rgb(60.623169%, 84.262085%, 82.949829%)" offset="0.542969"></stop>
      <stop stop-opacity="1" stop-color="rgb(60.03418%, 83.96759%, 82.644653%)" offset="0.546875"></stop>
      <stop stop-opacity="1" stop-color="rgb(59.44519%, 83.67157%, 82.337952%)" offset="0.550781"></stop>
      <stop stop-opacity="1" stop-color="rgb(58.856201%, 83.377075%, 82.03125%)" offset="0.554688"></stop>
      <stop stop-opacity="1" stop-color="rgb(58.265686%, 83.082581%, 81.724548%)" offset="0.558594"></stop>
      <stop stop-opacity="1" stop-color="rgb(57.676697%, 82.788086%, 81.419373%)" offset="0.5625"></stop>
      <stop stop-opacity="1" stop-color="rgb(57.086182%, 82.492065%, 81.112671%)" offset="0.566406"></stop>
      <stop stop-opacity="1" stop-color="rgb(56.497192%, 82.197571%, 80.805969%)" offset="0.570312"></stop>
      <stop stop-opacity="1" stop-color="rgb(55.906677%, 81.903076%, 80.499268%)" offset="0.574219"></stop>
      <stop stop-opacity="1" stop-color="rgb(55.317688%, 81.608582%, 80.194092%)" offset="0.578125"></stop>
      <stop stop-opacity="1" stop-color="rgb(54.727173%, 81.314087%, 79.88739%)" offset="0.582031"></stop>
      <stop stop-opacity="1" stop-color="rgb(54.138184%, 81.019592%, 79.580688%)" offset="0.585938"></stop>
      <stop stop-opacity="1" stop-color="rgb(53.549194%, 80.723572%, 79.273987%)" offset="0.589844"></stop>
      <stop stop-opacity="1" stop-color="rgb(52.960205%, 80.429077%, 78.967285%)" offset="0.59375"></stop>
      <stop stop-opacity="1" stop-color="rgb(52.36969%, 80.134583%, 78.660583%)" offset="0.597656"></stop>
      <stop stop-opacity="1" stop-color="rgb(51.780701%, 79.840088%, 78.355408%)" offset="0.601562"></stop>
      <stop stop-opacity="1" stop-color="rgb(51.190186%, 79.544067%, 78.048706%)" offset="0.605469"></stop>
      <stop stop-opacity="1" stop-color="rgb(50.601196%, 79.249573%, 77.742004%)" offset="0.609375"></stop>
      <stop stop-opacity="1" stop-color="rgb(50.010681%, 78.955078%, 77.435303%)" offset="0.613281"></stop>
      <stop stop-opacity="1" stop-color="rgb(49.421692%, 78.660583%, 77.130127%)" offset="0.617188"></stop>
      <stop stop-opacity="1" stop-color="rgb(48.832703%, 78.366089%, 76.823425%)" offset="0.621094"></stop>
      <stop stop-opacity="1" stop-color="rgb(48.243713%, 78.071594%, 76.516724%)" offset="0.625"></stop>
      <stop stop-opacity="1" stop-color="rgb(47.653198%, 77.775574%, 76.210022%)" offset="0.628906"></stop>
      <stop stop-opacity="1" stop-color="rgb(47.064209%, 77.481079%, 75.904846%)" offset="0.632812"></stop>
      <stop stop-opacity="1" stop-color="rgb(46.473694%, 77.186584%, 75.598145%)" offset="0.636719"></stop>
      <stop stop-opacity="1" stop-color="rgb(45.884705%, 76.89209%, 75.291443%)" offset="0.640625"></stop>
      <stop stop-opacity="1" stop-color="rgb(45.294189%, 76.597595%, 74.984741%)" offset="0.644531"></stop>
      <stop stop-opacity="1" stop-color="rgb(44.7052%, 76.303101%, 74.679565%)" offset="0.648438"></stop>
      <stop stop-opacity="1" stop-color="rgb(44.114685%, 76.00708%, 74.372864%)" offset="0.652344"></stop>
      <stop stop-opacity="1" stop-color="rgb(43.525696%, 75.712585%, 74.066162%)" offset="0.65625"></stop>
      <stop stop-opacity="1" stop-color="rgb(42.936707%, 75.418091%, 73.75946%)" offset="0.660156"></stop>
      <stop stop-opacity="1" stop-color="rgb(42.347717%, 75.123596%, 73.454285%)" offset="0.664063"></stop>
      <stop stop-opacity="1" stop-color="rgb(41.757202%, 74.827576%, 73.147583%)" offset="0.667969"></stop>
      <stop stop-opacity="1" stop-color="rgb(41.168213%, 74.533081%, 72.840881%)" offset="0.671875"></stop>
      <stop stop-opacity="1" stop-color="rgb(40.577698%, 74.238586%, 72.53418%)" offset="0.675781"></stop>
      <stop stop-opacity="1" stop-color="rgb(39.988708%, 73.944092%, 72.227478%)" offset="0.679688"></stop>
      <stop stop-opacity="1" stop-color="rgb(39.398193%, 73.649597%, 71.920776%)" offset="0.683594"></stop>
      <stop stop-opacity="1" stop-color="rgb(38.809204%, 73.355103%, 71.615601%)" offset="0.6875"></stop>
      <stop stop-opacity="1" stop-color="rgb(38.218689%, 73.059082%, 71.308899%)" offset="0.691406"></stop>
      <stop stop-opacity="1" stop-color="rgb(37.6297%, 72.764587%, 71.002197%)" offset="0.695312"></stop>
      <stop stop-opacity="1" stop-color="rgb(37.04071%, 72.470093%, 70.695496%)" offset="0.699219"></stop>
      <stop stop-opacity="1" stop-color="rgb(36.451721%, 72.175598%, 70.39032%)" offset="0.703125"></stop>
      <stop stop-opacity="1" stop-color="rgb(35.861206%, 71.879578%, 70.083618%)" offset="0.707031"></stop>
      <stop stop-opacity="1" stop-color="rgb(35.272217%, 71.585083%, 69.776917%)" offset="0.710938"></stop>
      <stop stop-opacity="1" stop-color="rgb(34.681702%, 71.290588%, 69.470215%)" offset="0.714844"></stop>
      <stop stop-opacity="1" stop-color="rgb(34.092712%, 70.996094%, 69.165039%)" offset="0.71875"></stop>
      <stop stop-opacity="1" stop-color="rgb(33.502197%, 70.701599%, 68.858337%)" offset="0.722656"></stop>
      <stop stop-opacity="1" stop-color="rgb(32.913208%, 70.407104%, 68.551636%)" offset="0.726563"></stop>
      <stop stop-opacity="1" stop-color="rgb(32.324219%, 70.111084%, 68.244934%)" offset="0.730469"></stop>
      <stop stop-opacity="1" stop-color="rgb(31.735229%, 69.816589%, 67.939758%)" offset="0.734375"></stop>
      <stop stop-opacity="1" stop-color="rgb(31.144714%, 69.522095%, 67.633057%)" offset="0.738281"></stop>
      <stop stop-opacity="1" stop-color="rgb(30.555725%, 69.2276%, 67.326355%)" offset="0.742188"></stop>
      <stop stop-opacity="1" stop-color="rgb(29.96521%, 68.93158%, 67.019653%)" offset="0.746094"></stop>
      <stop stop-opacity="1" stop-color="rgb(29.376221%, 68.637085%, 66.712952%)" offset="0.75"></stop>
      <stop stop-opacity="1" stop-color="rgb(28.785706%, 68.34259%, 66.40625%)" offset="0.753906"></stop>
      <stop stop-opacity="1" stop-color="rgb(28.196716%, 68.048096%, 66.101074%)" offset="0.757812"></stop>
      <stop stop-opacity="1" stop-color="rgb(27.606201%, 67.753601%, 65.794373%)" offset="0.761719"></stop>
      <stop stop-opacity="1" stop-color="rgb(27.017212%, 67.459106%, 65.487671%)" offset="0.765625"></stop>
      <stop stop-opacity="1" stop-color="rgb(26.428223%, 67.163086%, 65.180969%)" offset="0.769531"></stop>
      <stop stop-opacity="1" stop-color="rgb(25.839233%, 66.868591%, 64.875793%)" offset="0.773438"></stop>
      <stop stop-opacity="1" stop-color="rgb(25.668335%, 66.783142%, 64.787292%)" offset="0.78125"></stop>
      <stop stop-opacity="1" stop-color="rgb(25.498962%, 66.699219%, 64.698792%)" offset="0.8125"></stop>
      <stop stop-opacity="1" stop-color="rgb(25.498962%, 66.699219%, 64.698792%)" offset="0.875"></stop>
      <stop stop-opacity="1" stop-color="rgb(25.498962%, 66.699219%, 64.698792%)" offset="1"></stop>
    </linearGradient>
    <clipPath id="cc394dab26">
      <path d="M 64 27.136719 L 392 27.136719 L 392 298 L 64 298 Z M 64 27.136719 " clip-rule="nonzero"></path>
    </clipPath>
    <clipPath id="077c210fb7">
      <path d="M 85 27.136719 L 369 27.136719 L 369 275 L 85 275 Z M 85 27.136719 " clip-rule="nonzero"></path>
    </clipPath>
  </defs>
  <g clip-path="url(#b20d232123)">
    <path fill="#41aaa5" d="M -889.953125 119.011719 L -889.953125 73.214844 C -890.03125 72.667969 -890.042969 72.121094 -889.996094 71.570312 C -889.945312 71.019531 -889.835938 70.484375 -889.660156 69.960938 C -889.484375 69.4375 -889.253906 68.941406 -888.964844 68.46875 C -888.671875 68 -888.332031 67.570312 -887.941406 67.179688 C -887.554688 66.789062 -887.125 66.449219 -886.65625 66.160156 C -886.183594 65.871094 -885.6875 65.636719 -885.164062 65.464844 C -884.640625 65.289062 -884.105469 65.175781 -883.558594 65.128906 C -883.007812 65.078125 -882.460938 65.09375 -881.914062 65.171875 L -849.214844 65.171875 C -848.671875 65.09375 -848.121094 65.078125 -847.574219 65.128906 C -847.023438 65.175781 -846.488281 65.289062 -845.964844 65.464844 C -845.441406 65.636719 -844.945312 65.871094 -844.476562 66.160156 C -844.007812 66.449219 -843.578125 66.789062 -843.1875 67.179688 C -842.796875 67.570312 -842.457031 68 -842.167969 68.46875 C -841.878906 68.941406 -841.644531 69.4375 -841.46875 69.960938 C -841.296875 70.484375 -841.183594 71.019531 -841.136719 71.570312 C -841.085938 72.121094 -841.101562 72.667969 -841.179688 73.214844 L -841.179688 119.011719 C -841.179688 124.707031 -843.859375 127.554688 -849.214844 127.554688 L -881.871094 127.554688 C -887.257812 127.554688 -889.953125 124.707031 -889.953125 119.011719 Z M -889.953125 409.539062 L -889.953125 170.28125 C -889.953125 164.582031 -887.273438 161.734375 -881.914062 161.734375 L -849.816406 161.734375 C -849.527344 161.695312 -849.238281 161.667969 -848.945312 161.660156 C -848.652344 161.652344 -848.363281 161.664062 -848.070312 161.691406 C -847.78125 161.714844 -847.492188 161.757812 -847.207031 161.820312 C -846.921875 161.878906 -846.640625 161.953125 -846.363281 162.046875 C -846.085938 162.140625 -845.8125 162.246094 -845.550781 162.371094 C -845.285156 162.496094 -845.027344 162.632812 -844.78125 162.789062 C -844.53125 162.941406 -844.292969 163.109375 -844.0625 163.289062 C -843.835938 163.472656 -843.617188 163.664062 -843.410156 163.871094 C -843.203125 164.078125 -843.011719 164.296875 -842.828125 164.523438 C -842.648438 164.753906 -842.480469 164.992188 -842.328125 165.242188 C -842.175781 165.488281 -842.035156 165.746094 -841.910156 166.011719 C -841.789062 166.277344 -841.679688 166.546875 -841.585938 166.824219 C -841.496094 167.101562 -841.417969 167.382812 -841.359375 167.667969 C -841.300781 167.953125 -841.257812 168.242188 -841.230469 168.535156 C -841.203125 168.824219 -841.195312 169.117188 -841.203125 169.40625 C -841.210938 169.699219 -841.234375 169.992188 -841.277344 170.28125 L -841.277344 409.539062 C -841.148438 410.789062 -841.261719 412.015625 -841.609375 413.222656 C -841.957031 414.429688 -842.515625 415.527344 -843.285156 416.519531 C -844.148438 417.128906 -845.085938 417.570312 -846.109375 417.839844 C -847.128906 418.109375 -848.164062 418.191406 -849.214844 418.082031 L -881.3125 418.082031 C -881.605469 418.128906 -881.898438 418.15625 -882.191406 418.167969 C -882.484375 418.179688 -882.78125 418.175781 -883.074219 418.152344 C -883.367188 418.128906 -883.65625 418.085938 -883.945312 418.03125 C -884.234375 417.972656 -884.519531 417.898438 -884.800781 417.808594 C -885.078125 417.71875 -885.355469 417.613281 -885.621094 417.488281 C -885.890625 417.367188 -886.148438 417.230469 -886.402344 417.074219 C -886.652344 416.921875 -886.894531 416.753906 -887.125 416.574219 C -887.359375 416.394531 -887.578125 416.199219 -887.789062 415.992188 C -887.996094 415.785156 -888.195312 415.566406 -888.378906 415.335938 C -888.5625 415.105469 -888.730469 414.867188 -888.886719 414.617188 C -889.042969 414.367188 -889.183594 414.109375 -889.308594 413.839844 C -889.433594 413.574219 -889.542969 413.300781 -889.636719 413.023438 C -889.730469 412.742188 -889.808594 412.460938 -889.867188 412.171875 C -889.929688 411.882812 -889.972656 411.59375 -890 411.300781 C -890.027344 411.003906 -890.035156 410.710938 -890.027344 410.417969 C -890.019531 410.121094 -889.996094 409.828125 -889.953125 409.539062 Z M -679.742188 418.082031 L -705.363281 418.082031 C -707.902344 418.25 -710.445312 418.28125 -712.988281 418.1875 C -715.53125 418.089844 -718.0625 417.863281 -720.582031 417.507812 C -723.105469 417.152344 -725.597656 416.667969 -728.070312 416.054688 C -730.539062 415.445312 -732.972656 414.707031 -735.367188 413.84375 C -737.761719 412.980469 -740.105469 411.996094 -742.398438 410.894531 C -744.691406 409.792969 -746.925781 408.574219 -749.09375 407.242188 C -751.261719 405.90625 -753.355469 404.46875 -755.375 402.917969 C -757.398438 401.371094 -759.335938 399.722656 -761.1875 397.976562 C -764.542969 393.992188 -767.496094 389.722656 -770.039062 385.171875 C -772.578125 380.621094 -774.667969 375.867188 -776.304688 370.917969 C -777.9375 365.96875 -779.089844 360.90625 -779.757812 355.734375 C -780.425781 350.566406 -780.597656 345.378906 -780.277344 340.171875 L -780.277344 239.644531 C -780.628906 234.4375 -780.476562 229.246094 -779.824219 224.070312 C -779.167969 218.894531 -778.023438 213.828125 -776.386719 208.875 C -774.75 203.917969 -772.652344 199.167969 -770.09375 194.621094 C -767.539062 190.070312 -764.570312 185.8125 -761.1875 181.839844 C -759.335938 180.09375 -757.398438 178.445312 -755.375 176.898438 C -753.355469 175.351562 -751.261719 173.910156 -749.09375 172.578125 C -746.925781 171.246094 -744.691406 170.027344 -742.398438 168.921875 C -740.105469 167.820312 -737.761719 166.835938 -735.367188 165.976562 C -732.972656 165.113281 -730.539062 164.375 -728.070312 163.761719 C -725.597656 163.148438 -723.105469 162.664062 -720.582031 162.308594 C -718.0625 161.953125 -715.53125 161.726562 -712.988281 161.632812 C -710.445312 161.535156 -707.902344 161.570312 -705.363281 161.734375 L -679.742188 161.734375 C -653.953125 161.734375 -637.207031 170.613281 -629.503906 188.375 L -627.492188 188.375 L -627.492188 73.214844 C -627.535156 72.925781 -627.558594 72.632812 -627.566406 72.339844 C -627.574219 72.050781 -627.566406 71.757812 -627.539062 71.46875 C -627.511719 71.175781 -627.46875 70.886719 -627.410156 70.601562 C -627.351562 70.316406 -627.273438 70.035156 -627.179688 69.757812 C -627.089844 69.480469 -626.980469 69.210938 -626.855469 68.945312 C -626.734375 68.679688 -626.59375 68.421875 -626.441406 68.175781 C -626.289062 67.925781 -626.121094 67.6875 -625.9375 67.457031 C -625.757812 67.230469 -625.5625 67.011719 -625.359375 66.804688 C -625.152344 66.597656 -624.933594 66.40625 -624.703125 66.222656 C -624.476562 66.042969 -624.238281 65.875 -623.988281 65.722656 C -623.738281 65.566406 -623.484375 65.429688 -623.21875 65.304688 C -622.953125 65.179688 -622.683594 65.074219 -622.40625 64.980469 C -622.128906 64.886719 -621.847656 64.8125 -621.5625 64.753906 C -621.277344 64.691406 -620.988281 64.648438 -620.699219 64.625 C -620.40625 64.597656 -620.117188 64.585938 -619.824219 64.59375 C -619.53125 64.601562 -619.242188 64.628906 -618.953125 64.667969 L -586.855469 64.667969 C -586.566406 64.628906 -586.277344 64.601562 -585.984375 64.59375 C -585.691406 64.585938 -585.402344 64.597656 -585.109375 64.625 C -584.820312 64.648438 -584.53125 64.691406 -584.246094 64.753906 C -583.957031 64.8125 -583.675781 64.886719 -583.402344 64.980469 C -583.125 65.074219 -582.851562 65.179688 -582.589844 65.304688 C -582.324219 65.429688 -582.066406 65.566406 -581.820312 65.722656 C -581.570312 65.875 -581.332031 66.042969 -581.101562 66.222656 C -580.875 66.40625 -580.65625 66.597656 -580.449219 66.804688 C -580.242188 67.011719 -580.050781 67.230469 -579.867188 67.457031 C -579.6875 67.6875 -579.519531 67.925781 -579.367188 68.175781 C -579.210938 68.421875 -579.074219 68.679688 -578.949219 68.945312 C -578.828125 69.210938 -578.71875 69.480469 -578.625 69.757812 C -578.535156 70.035156 -578.457031 70.316406 -578.398438 70.601562 C -578.339844 70.886719 -578.296875 71.175781 -578.269531 71.46875 C -578.242188 71.757812 -578.234375 72.050781 -578.242188 72.339844 C -578.25 72.632812 -578.273438 72.925781 -578.3125 73.214844 L -578.3125 409.539062 C -578.273438 409.828125 -578.25 410.117188 -578.242188 410.410156 C -578.234375 410.703125 -578.242188 410.992188 -578.269531 411.285156 C -578.296875 411.574219 -578.339844 411.863281 -578.398438 412.148438 C -578.457031 412.4375 -578.535156 412.71875 -578.625 412.996094 C -578.71875 413.273438 -578.828125 413.542969 -578.949219 413.808594 C -579.074219 414.070312 -579.210938 414.328125 -579.367188 414.578125 C -579.519531 414.824219 -579.6875 415.0625 -579.867188 415.292969 C -580.050781 415.523438 -580.242188 415.738281 -580.449219 415.945312 C -580.65625 416.152344 -580.875 416.347656 -581.101562 416.527344 C -581.332031 416.710938 -581.570312 416.878906 -581.820312 417.03125 C -582.066406 417.183594 -582.324219 417.324219 -582.589844 417.445312 C -582.851562 417.570312 -583.125 417.679688 -583.402344 417.769531 C -583.675781 417.863281 -583.957031 417.941406 -584.246094 418 C -584.53125 418.058594 -584.820312 418.101562 -585.109375 418.128906 C -585.398438 418.15625 -585.691406 418.164062 -585.984375 418.15625 C -586.277344 418.148438 -586.566406 418.125 -586.855469 418.082031 L -618.953125 418.082031 C -619.242188 418.125 -619.53125 418.148438 -619.824219 418.15625 C -620.117188 418.164062 -620.40625 418.15625 -620.699219 418.128906 C -620.988281 418.101562 -621.277344 418.058594 -621.5625 418 C -621.847656 417.941406 -622.128906 417.863281 -622.40625 417.769531 C -622.683594 417.679688 -622.953125 417.570312 -623.21875 417.445312 C -623.484375 417.324219 -623.738281 417.183594 -623.988281 417.03125 C -624.238281 416.878906 -624.476562 416.710938 -624.703125 416.527344 C -624.933594 416.347656 -625.152344 416.152344 -625.359375 415.945312 C -625.5625 415.738281 -625.757812 415.523438 -625.9375 415.292969 C -626.121094 415.0625 -626.289062 414.824219 -626.441406 414.578125 C -626.59375 414.328125 -626.734375 414.070312 -626.855469 413.808594 C -626.980469 413.542969 -627.089844 413.273438 -627.179688 412.996094 C -627.273438 412.71875 -627.347656 412.4375 -627.410156 412.148438 C -627.46875 411.863281 -627.511719 411.574219 -627.539062 411.285156 C -627.566406 410.992188 -627.574219 410.703125 -627.566406 410.410156 C -627.558594 410.117188 -627.535156 409.828125 -627.492188 409.539062 L -627.492188 391.386719 L -629.503906 391.386719 C -637.207031 409.183594 -653.953125 418.082031 -679.742188 418.082031 Z M -627.492188 332.632812 L -627.492188 247.183594 C -627.492188 218.703125 -641.226562 204.460938 -668.6875 204.460938 L -695.316406 204.460938 C -719.429688 204.460938 -731.488281 216.859375 -731.488281 241.65625 L -731.488281 338.164062 C -731.488281 362.960938 -719.429688 375.359375 -695.316406 375.359375 L -668.6875 375.359375 C -641.226562 375.359375 -627.492188 361.117188 -627.492188 332.632812 Z M -333.800781 418.082031 L -442.320312 418.082031 C -444.941406 418.242188 -447.566406 418.269531 -450.195312 418.164062 C -452.820312 418.058594 -455.433594 417.824219 -458.039062 417.453125 C -460.640625 417.085938 -463.21875 416.585938 -465.769531 415.957031 C -468.320312 415.328125 -470.835938 414.570312 -473.3125 413.6875 C -475.789062 412.804688 -478.214844 411.796875 -480.585938 410.671875 C -482.960938 409.542969 -485.273438 408.296875 -487.523438 406.9375 C -489.773438 405.574219 -491.945312 404.105469 -494.046875 402.523438 C -496.148438 400.941406 -498.164062 399.257812 -500.09375 397.476562 C -501.832031 395.546875 -503.472656 393.535156 -505.011719 391.445312 C -506.554688 389.355469 -507.988281 387.191406 -509.3125 384.957031 C -510.636719 382.726562 -511.851562 380.429688 -512.949219 378.078125 C -514.046875 375.722656 -515.027344 373.320312 -515.886719 370.871094 C -516.746094 368.421875 -517.484375 365.933594 -518.097656 363.410156 C -518.710938 360.882812 -519.199219 358.335938 -519.5625 355.765625 C -519.921875 353.191406 -520.15625 350.609375 -520.261719 348.011719 C -520.367188 345.417969 -520.34375 342.824219 -520.191406 340.230469 L -520.191406 239.699219 C -520.355469 237.105469 -520.394531 234.511719 -520.300781 231.910156 C -520.207031 229.3125 -519.980469 226.726562 -519.628906 224.152344 C -519.273438 221.578125 -518.789062 219.023438 -518.179688 216.5 C -517.570312 213.972656 -516.832031 211.480469 -515.972656 209.027344 C -515.113281 206.574219 -514.128906 204.171875 -513.027344 201.820312 C -511.925781 199.464844 -510.707031 197.171875 -509.375 194.941406 C -508.039062 192.710938 -506.597656 190.550781 -505.046875 188.464844 C -503.496094 186.378906 -501.847656 184.375 -500.09375 182.453125 C -498.164062 180.671875 -496.148438 178.988281 -494.046875 177.40625 C -491.945312 175.824219 -489.773438 174.355469 -487.523438 172.992188 C -485.273438 171.632812 -482.960938 170.386719 -480.585938 169.257812 C -478.214844 168.132812 -475.789062 167.125 -473.3125 166.242188 C -470.835938 165.359375 -468.320312 164.601562 -465.769531 163.972656 C -463.21875 163.34375 -460.640625 162.84375 -458.039062 162.476562 C -455.433594 162.105469 -452.820312 161.871094 -450.195312 161.765625 C -447.566406 161.660156 -444.941406 161.6875 -442.320312 161.847656 L -401.121094 161.847656 C -398.5 161.6875 -395.875 161.660156 -393.246094 161.765625 C -390.621094 161.871094 -388.007812 162.105469 -385.402344 162.476562 C -382.800781 162.84375 -380.222656 163.34375 -377.671875 163.972656 C -375.121094 164.601562 -372.605469 165.359375 -370.128906 166.242188 C -367.652344 167.125 -365.230469 168.132812 -362.855469 169.257812 C -360.480469 170.386719 -358.167969 171.632812 -355.917969 172.992188 C -353.671875 174.355469 -351.496094 175.824219 -349.394531 177.40625 C -347.292969 178.988281 -345.277344 180.671875 -343.347656 182.453125 C -341.558594 184.355469 -339.875 186.34375 -338.289062 188.414062 C -336.707031 190.488281 -335.230469 192.636719 -333.867188 194.863281 C -332.503906 197.085938 -331.257812 199.375 -330.128906 201.726562 C -329 204.078125 -327.992188 206.484375 -327.109375 208.9375 C -326.226562 211.394531 -325.46875 213.886719 -324.839844 216.421875 C -324.210938 218.953125 -323.714844 221.511719 -323.351562 224.09375 C -322.984375 226.679688 -322.75 229.273438 -322.648438 231.882812 C -322.550781 234.492188 -322.582031 237.097656 -322.75 239.699219 L -322.75 303.535156 C -322.707031 303.84375 -322.679688 304.148438 -322.671875 304.460938 C -322.664062 304.769531 -322.675781 305.078125 -322.703125 305.386719 C -322.730469 305.691406 -322.777344 306 -322.839844 306.300781 C -322.902344 306.605469 -322.984375 306.902344 -323.082031 307.195312 C -323.179688 307.488281 -323.292969 307.777344 -323.425781 308.054688 C -323.554688 308.335938 -323.703125 308.605469 -323.863281 308.871094 C -324.027344 309.132812 -324.203125 309.386719 -324.394531 309.628906 C -324.585938 309.871094 -324.792969 310.101562 -325.011719 310.320312 C -325.230469 310.539062 -325.460938 310.746094 -325.703125 310.9375 C -325.945312 311.128906 -326.199219 311.304688 -326.460938 311.46875 C -326.722656 311.632812 -326.996094 311.777344 -327.273438 311.910156 C -327.554688 312.039062 -327.84375 312.15625 -328.136719 312.253906 C -328.429688 312.351562 -328.726562 312.429688 -329.027344 312.496094 C -329.332031 312.558594 -329.636719 312.601562 -329.945312 312.632812 C -330.253906 312.660156 -330.5625 312.667969 -330.871094 312.660156 C -331.179688 312.652344 -331.484375 312.628906 -331.792969 312.582031 L -466.433594 312.582031 C -470.15625 312.582031 -472.015625 314.257812 -472.015625 317.609375 L -472.015625 339.222656 C -472.105469 339.84375 -472.175781 340.46875 -472.226562 341.089844 C -472.28125 341.714844 -472.3125 342.339844 -472.332031 342.96875 C -472.347656 343.59375 -472.34375 344.222656 -472.324219 344.847656 C -472.304688 345.472656 -472.265625 346.097656 -472.210938 346.722656 C -472.152344 347.347656 -472.078125 347.96875 -471.988281 348.589844 C -471.894531 349.210938 -471.785156 349.824219 -471.65625 350.4375 C -471.527344 351.050781 -471.382812 351.660156 -471.21875 352.265625 C -471.054688 352.871094 -470.875 353.472656 -470.675781 354.066406 C -470.480469 354.660156 -470.265625 355.25 -470.03125 355.832031 C -469.800781 356.414062 -469.550781 356.988281 -469.285156 357.554688 C -469.019531 358.125 -468.738281 358.683594 -468.441406 359.234375 C -468.140625 359.785156 -467.828125 360.328125 -467.5 360.859375 C -467.171875 361.394531 -466.824219 361.917969 -466.464844 362.429688 C -466.105469 362.941406 -465.730469 363.445312 -465.34375 363.9375 C -464.953125 364.429688 -464.550781 364.90625 -464.136719 365.375 C -463.71875 365.84375 -463.289062 366.300781 -462.847656 366.742188 C -462.402344 367.1875 -461.949219 367.617188 -461.480469 368.03125 C -461.011719 368.449219 -460.53125 368.851562 -460.042969 369.242188 C -459.550781 369.628906 -459.046875 370.003906 -458.535156 370.363281 C -458.023438 370.722656 -457.5 371.070312 -456.96875 371.398438 C -456.433594 371.726562 -455.890625 372.042969 -455.339844 372.339844 C -454.789062 372.636719 -454.230469 372.917969 -453.664062 373.183594 C -453.097656 373.449219 -452.523438 373.699219 -451.941406 373.933594 C -451.359375 374.164062 -450.769531 374.378906 -450.175781 374.578125 C -449.582031 374.777344 -448.980469 374.957031 -448.378906 375.121094 C -447.773438 375.285156 -447.164062 375.429688 -446.550781 375.558594 C -445.9375 375.6875 -445.320312 375.796875 -444.703125 375.886719 C -444.082031 375.980469 -443.460938 376.054688 -442.835938 376.113281 C -442.210938 376.167969 -441.585938 376.207031 -440.960938 376.226562 C -440.335938 376.246094 -439.710938 376.25 -439.082031 376.230469 C -438.457031 376.214844 -437.832031 376.179688 -437.207031 376.128906 C -436.582031 376.078125 -435.960938 376.003906 -435.339844 375.917969 L -333.859375 375.917969 C -333.550781 375.875 -333.246094 375.847656 -332.933594 375.839844 C -332.625 375.832031 -332.316406 375.84375 -332.011719 375.871094 C -331.703125 375.898438 -331.398438 375.945312 -331.09375 376.007812 C -330.792969 376.070312 -330.492188 376.152344 -330.199219 376.25 C -329.90625 376.347656 -329.621094 376.460938 -329.339844 376.59375 C -329.0625 376.722656 -328.789062 376.871094 -328.527344 377.03125 C -328.261719 377.195312 -328.011719 377.371094 -327.769531 377.566406 C -327.527344 377.757812 -327.296875 377.960938 -327.078125 378.179688 C -326.859375 378.398438 -326.652344 378.628906 -326.460938 378.871094 C -326.269531 379.113281 -326.09375 379.367188 -325.929688 379.628906 C -325.765625 379.894531 -325.621094 380.164062 -325.488281 380.445312 C -325.359375 380.726562 -325.242188 381.011719 -325.144531 381.304688 C -325.046875 381.597656 -324.96875 381.898438 -324.90625 382.199219 C -324.839844 382.503906 -324.796875 382.808594 -324.769531 383.117188 C -324.738281 383.425781 -324.730469 383.734375 -324.738281 384.042969 C -324.746094 384.351562 -324.769531 384.660156 -324.816406 384.964844 L -324.816406 410.097656 C -324.777344 415.421875 -327.773438 418.082031 -333.800781 418.082031 Z M -466.378906 278.347656 L -376.449219 278.347656 C -376.109375 278.398438 -375.765625 278.40625 -375.421875 278.375 C -375.078125 278.34375 -374.742188 278.273438 -374.417969 278.167969 C -374.089844 278.058594 -373.78125 277.914062 -373.484375 277.730469 C -373.191406 277.550781 -372.925781 277.335938 -372.679688 277.09375 C -372.4375 276.847656 -372.222656 276.582031 -372.042969 276.285156 C -371.863281 275.992188 -371.714844 275.683594 -371.609375 275.355469 C -371.5 275.027344 -371.429688 274.691406 -371.398438 274.347656 C -371.367188 274.003906 -371.375 273.664062 -371.425781 273.320312 L -371.425781 241.207031 C -371.199219 238.738281 -371.214844 236.265625 -371.472656 233.796875 C -371.730469 231.332031 -372.226562 228.910156 -372.957031 226.539062 C -373.691406 224.167969 -374.648438 221.890625 -375.824219 219.707031 C -377.003906 217.523438 -378.386719 215.476562 -379.964844 213.5625 C -381.835938 211.902344 -383.859375 210.453125 -386.027344 209.207031 C -388.195312 207.960938 -390.46875 206.953125 -392.84375 206.171875 C -395.222656 205.394531 -397.652344 204.867188 -400.136719 204.585938 C -402.621094 204.308594 -405.109375 204.285156 -407.597656 204.515625 L -435.230469 204.515625 C -437.71875 204.285156 -440.207031 204.308594 -442.691406 204.585938 C -445.175781 204.867188 -447.605469 205.394531 -449.984375 206.171875 C -452.359375 206.953125 -454.632812 207.960938 -456.800781 209.207031 C -458.96875 210.453125 -460.988281 211.902344 -462.863281 213.5625 C -464.441406 215.476562 -465.824219 217.523438 -467 219.707031 C -468.179688 221.890625 -469.136719 224.167969 -469.871094 226.539062 C -470.601562 228.910156 -471.097656 231.332031 -471.355469 233.796875 C -471.613281 236.265625 -471.628906 238.738281 -471.402344 241.207031 L -471.402344 273.320312 C -471.449219 273.660156 -471.457031 274 -471.429688 274.339844 C -471.398438 274.683594 -471.328125 275.015625 -471.222656 275.339844 C -471.113281 275.664062 -470.972656 275.972656 -470.792969 276.265625 C -470.613281 276.558594 -470.402344 276.824219 -470.164062 277.066406 C -469.921875 277.3125 -469.65625 277.523438 -469.367188 277.707031 C -469.078125 277.886719 -468.773438 278.035156 -468.449219 278.144531 C -468.125 278.257812 -467.792969 278.328125 -467.453125 278.363281 C -467.113281 278.398438 -466.773438 278.394531 -466.433594 278.347656 Z M -243.300781 418.082031 L -281.484375 418.082031 C -288.851562 418.082031 -290.710938 415.234375 -287.066406 409.539062 L -220.246094 287.394531 L -285.558594 170.28125 C -289.28125 164.582031 -287.773438 161.734375 -281.035156 161.734375 L -242.296875 161.734375 C -241.597656 161.6875 -240.902344 161.699219 -240.207031 161.765625 C -239.507812 161.832031 -238.824219 161.953125 -238.148438 162.128906 C -237.46875 162.304688 -236.8125 162.535156 -236.171875 162.820312 C -235.535156 163.105469 -234.921875 163.4375 -234.335938 163.820312 C -233.75 164.203125 -233.199219 164.632812 -232.683594 165.101562 C -232.167969 165.574219 -231.691406 166.085938 -231.257812 166.632812 C -230.824219 167.183594 -230.4375 167.761719 -230.097656 168.375 C -229.757812 168.988281 -229.472656 169.621094 -229.234375 170.28125 L -188.539062 256.734375 L -186.53125 256.734375 L -148.347656 170.28125 C -148.132812 169.632812 -147.863281 169.007812 -147.546875 168.40625 C -147.226562 167.804688 -146.863281 167.230469 -146.449219 166.6875 C -146.039062 166.148438 -145.585938 165.640625 -145.09375 165.171875 C -144.597656 164.703125 -144.070312 164.277344 -143.507812 163.894531 C -142.941406 163.507812 -142.351562 163.175781 -141.734375 162.886719 C -141.117188 162.601562 -140.480469 162.363281 -139.824219 162.179688 C -139.167969 161.996094 -138.5 161.867188 -137.824219 161.792969 C -137.148438 161.71875 -136.46875 161.699219 -135.789062 161.734375 L -97.605469 161.734375 C -90.574219 161.734375 -88.898438 164.582031 -92.582031 170.28125 L -155.882812 286.835938 L -87.503906 409.484375 C -84.152344 415.179688 -85.660156 418.027344 -92.023438 418.027344 L -131.769531 418.027344 C -132.429688 418.046875 -133.089844 418.011719 -133.746094 417.925781 C -134.402344 417.839844 -135.046875 417.699219 -135.679688 417.507812 C -136.316406 417.316406 -136.929688 417.074219 -137.523438 416.785156 C -138.117188 416.492188 -138.6875 416.15625 -139.226562 415.773438 C -139.765625 415.390625 -140.273438 414.964844 -140.746094 414.5 C -141.214844 414.035156 -141.648438 413.535156 -142.039062 413.003906 C -142.429688 412.46875 -142.773438 411.90625 -143.074219 411.316406 C -143.375 410.722656 -143.625 410.113281 -143.828125 409.484375 L -186.53125 320.515625 L -188.539062 320.515625 L -230.742188 409.484375 C -230.957031 410.132812 -231.222656 410.757812 -231.539062 411.363281 C -231.855469 411.96875 -232.21875 412.542969 -232.628906 413.089844 C -233.039062 413.636719 -233.492188 414.144531 -233.984375 414.617188 C -234.480469 415.089844 -235.007812 415.515625 -235.570312 415.902344 C -236.132812 416.289062 -236.726562 416.625 -237.34375 416.917969 C -237.960938 417.207031 -238.601562 417.441406 -239.257812 417.628906 C -239.914062 417.8125 -240.582031 417.945312 -241.261719 418.019531 C -241.9375 418.097656 -242.621094 418.117188 -243.300781 418.082031 Z M -1.972656 418.082031 L -33.621094 418.082031 C -33.910156 418.125 -34.199219 418.148438 -34.492188 418.15625 C -34.785156 418.164062 -35.078125 418.15625 -35.367188 418.128906 C -35.65625 418.101562 -35.945312 418.058594 -36.230469 418 C -36.519531 417.941406 -36.800781 417.863281 -37.074219 417.769531 C -37.351562 417.679688 -37.625 417.570312 -37.886719 417.445312 C -38.152344 417.324219 -38.410156 417.183594 -38.65625 417.03125 C -38.90625 416.878906 -39.144531 416.710938 -39.375 416.527344 C -39.601562 416.347656 -39.820312 416.152344 -40.027344 415.945312 C -40.234375 415.738281 -40.425781 415.523438 -40.609375 415.292969 C -40.789062 415.0625 -40.957031 414.824219 -41.109375 414.578125 C -41.261719 414.328125 -41.402344 414.070312 -41.527344 413.808594 C -41.648438 413.542969 -41.757812 413.273438 -41.851562 412.996094 C -41.941406 412.71875 -42.019531 412.4375 -42.078125 412.148438 C -42.136719 411.863281 -42.179688 411.574219 -42.207031 411.285156 C -42.234375 410.992188 -42.242188 410.703125 -42.234375 410.410156 C -42.226562 410.117188 -42.203125 409.828125 -42.164062 409.539062 L -42.164062 73.214844 C -42.203125 72.925781 -42.226562 72.632812 -42.234375 72.339844 C -42.242188 72.050781 -42.234375 71.757812 -42.207031 71.46875 C -42.179688 71.175781 -42.136719 70.886719 -42.078125 70.601562 C -42.019531 70.316406 -41.941406 70.035156 -41.851562 69.757812 C -41.757812 69.480469 -41.648438 69.210938 -41.527344 68.945312 C -41.402344 68.679688 -41.261719 68.421875 -41.109375 68.175781 C -40.957031 67.925781 -40.789062 67.6875 -40.609375 67.457031 C -40.425781 67.230469 -40.234375 67.011719 -40.027344 66.804688 C -39.820312 66.597656 -39.601562 66.40625 -39.375 66.222656 C -39.144531 66.042969 -38.90625 65.875 -38.65625 65.722656 C -38.410156 65.566406 -38.152344 65.429688 -37.886719 65.304688 C -37.625 65.179688 -37.351562 65.074219 -37.074219 64.980469 C -36.800781 64.886719 -36.519531 64.8125 -36.230469 64.753906 C -35.945312 64.691406 -35.65625 64.648438 -35.367188 64.625 C -35.074219 64.597656 -34.785156 64.585938 -34.492188 64.59375 C -34.199219 64.601562 -33.910156 64.628906 -33.621094 64.667969 L -1.972656 64.667969 C -1.683594 64.628906 -1.390625 64.601562 -1.097656 64.59375 C -0.808594 64.585938 -0.515625 64.597656 -0.226562 64.625 C 0.0664062 64.648438 0.355469 64.691406 0.640625 64.753906 C 0.925781 64.8125 1.207031 64.886719 1.484375 64.980469 C 1.761719 65.074219 2.03125 65.179688 2.296875 65.304688 C 2.5625 65.429688 2.816406 65.566406 3.066406 65.722656 C 3.3125 65.875 3.550781 66.042969 3.78125 66.222656 C 4.011719 66.40625 4.226562 66.597656 4.433594 66.804688 C 4.640625 67.011719 4.835938 67.230469 5.015625 67.457031 C 5.195312 67.6875 5.363281 67.925781 5.519531 68.175781 C 5.671875 68.421875 5.808594 68.679688 5.933594 68.945312 C 6.058594 69.210938 6.164062 69.480469 6.257812 69.757812 C 6.351562 70.035156 6.425781 70.316406 6.484375 70.601562 C 6.546875 70.886719 6.589844 71.175781 6.613281 71.46875 C 6.640625 71.757812 6.652344 72.050781 6.644531 72.339844 C 6.636719 72.632812 6.609375 72.925781 6.570312 73.214844 L 6.570312 409.539062 C 6.609375 409.828125 6.636719 410.117188 6.644531 410.410156 C 6.652344 410.703125 6.640625 410.992188 6.613281 411.285156 C 6.589844 411.574219 6.546875 411.863281 6.484375 412.148438 C 6.425781 412.4375 6.351562 412.71875 6.257812 412.996094 C 6.164062 413.273438 6.058594 413.542969 5.933594 413.808594 C 5.808594 414.070312 5.671875 414.328125 5.519531 414.578125 C 5.363281 414.824219 5.195312 415.0625 5.015625 415.292969 C 4.835938 415.523438 4.640625 415.738281 4.433594 415.945312 C 4.226562 416.152344 4.011719 416.347656 3.78125 416.527344 C 3.550781 416.710938 3.3125 416.878906 3.066406 417.03125 C 2.816406 417.183594 2.558594 417.324219 2.296875 417.445312 C 2.03125 417.570312 1.761719 417.679688 1.484375 417.769531 C 1.207031 417.863281 0.925781 417.941406 0.640625 418 C 0.355469 418.058594 0.0664062 418.101562 -0.226562 418.128906 C -0.515625 418.15625 -0.808594 418.164062 -1.097656 418.15625 C -1.390625 418.148438 -1.679688 418.125 -1.96875 418.082031 Z M 485.980469 375.359375 L 548.277344 375.359375 C 572.390625 375.359375 584.449219 362.960938 584.449219 338.164062 L 584.449219 239.644531 C 584.449219 214.847656 572.390625 202.449219 548.277344 202.449219 L 521.648438 202.449219 C 494.183594 202.449219 480.453125 216.523438 480.453125 244.671875 L 480.453125 369.828125 C 480.398438 370.207031 480.390625 370.582031 480.421875 370.960938 C 480.457031 371.335938 480.535156 371.707031 480.65625 372.066406 C 480.773438 372.425781 480.933594 372.765625 481.132812 373.089844 C 481.332031 373.414062 481.566406 373.707031 481.835938 373.976562 C 482.101562 374.246094 482.398438 374.480469 482.71875 374.679688 C 483.042969 374.878906 483.382812 375.039062 483.742188 375.15625 C 484.105469 375.277344 484.472656 375.355469 484.851562 375.386719 C 485.226562 375.421875 485.605469 375.414062 485.980469 375.359375 Z M 431.722656 409.539062 L 431.722656 73.214844 C 431.679688 72.925781 431.65625 72.632812 431.648438 72.339844 C 431.640625 72.050781 431.648438 71.757812 431.675781 71.46875 C 431.703125 71.175781 431.746094 70.886719 431.804688 70.601562 C 431.863281 70.316406 431.941406 70.035156 432.03125 69.757812 C 432.125 69.480469 432.234375 69.210938 432.355469 68.945312 C 432.480469 68.679688 432.621094 68.421875 432.773438 68.175781 C 432.925781 67.925781 433.09375 67.6875 433.273438 67.457031 C 433.457031 67.230469 433.648438 67.011719 433.855469 66.804688 C 434.0625 66.597656 434.28125 66.40625 434.507812 66.222656 C 434.738281 66.042969 434.976562 65.875 435.226562 65.722656 C 435.472656 65.566406 435.730469 65.429688 435.996094 65.304688 C 436.257812 65.179688 436.53125 65.074219 436.808594 64.980469 C 437.085938 64.886719 437.367188 64.8125 437.652344 64.753906 C 437.9375 64.691406 438.226562 64.648438 438.515625 64.625 C 438.808594 64.597656 439.097656 64.585938 439.390625 64.59375 C 439.683594 64.601562 439.972656 64.628906 440.261719 64.667969 L 471.914062 64.667969 C 472.203125 64.628906 472.492188 64.601562 472.785156 64.59375 C 473.074219 64.585938 473.367188 64.597656 473.65625 64.625 C 473.949219 64.648438 474.238281 64.691406 474.523438 64.753906 C 474.808594 64.8125 475.089844 64.886719 475.367188 64.980469 C 475.644531 65.074219 475.914062 65.179688 476.179688 65.304688 C 476.445312 65.429688 476.699219 65.566406 476.949219 65.722656 C 477.195312 65.875 477.433594 66.042969 477.664062 66.222656 C 477.894531 66.40625 478.109375 66.597656 478.316406 66.804688 C 478.523438 67.011719 478.71875 67.230469 478.898438 67.457031 C 479.082031 67.6875 479.246094 67.925781 479.402344 68.175781 C 479.554688 68.421875 479.691406 68.679688 479.816406 68.945312 C 479.941406 69.210938 480.050781 69.480469 480.140625 69.757812 C 480.234375 70.035156 480.308594 70.316406 480.371094 70.601562 C 480.429688 70.886719 480.472656 71.175781 480.5 71.46875 C 480.523438 71.757812 480.535156 72.050781 480.527344 72.339844 C 480.519531 72.632812 480.496094 72.925781 480.453125 73.214844 L 480.453125 186.867188 L 482.460938 186.867188 C 490.835938 168.773438 507.75 159.722656 533.203125 159.722656 L 555.308594 159.722656 C 557.933594 159.5625 560.558594 159.539062 563.183594 159.640625 C 565.8125 159.746094 568.425781 159.984375 571.027344 160.355469 C 573.632812 160.722656 576.207031 161.222656 578.761719 161.851562 C 581.3125 162.480469 583.828125 163.238281 586.300781 164.121094 C 588.777344 165.003906 591.203125 166.007812 593.578125 167.136719 C 595.953125 168.265625 598.265625 169.511719 600.511719 170.871094 C 602.761719 172.234375 604.9375 173.703125 607.039062 175.285156 C 609.136719 176.867188 611.152344 178.546875 613.085938 180.332031 C 614.867188 182.214844 616.546875 184.183594 618.128906 186.234375 C 619.707031 188.289062 621.179688 190.417969 622.539062 192.625 C 623.902344 194.832031 625.144531 197.101562 626.273438 199.433594 C 627.402344 201.765625 628.410156 204.152344 629.292969 206.585938 C 630.175781 209.023438 630.933594 211.5 631.5625 214.011719 C 632.191406 216.527344 632.691406 219.066406 633.058594 221.632812 C 633.429688 224.199219 633.664062 226.777344 633.769531 229.367188 C 633.875 231.957031 633.84375 234.542969 633.683594 237.132812 L 633.683594 340.171875 C 633.835938 342.777344 633.855469 345.378906 633.742188 347.984375 C 633.632812 350.589844 633.390625 353.183594 633.015625 355.765625 C 632.640625 358.34375 632.140625 360.898438 631.507812 363.429688 C 630.878906 365.960938 630.121094 368.453125 629.238281 370.90625 C 628.355469 373.359375 627.351562 375.761719 626.226562 378.113281 C 625.101562 380.464844 623.859375 382.753906 622.503906 384.980469 C 621.148438 387.207031 619.679688 389.359375 618.109375 391.4375 C 616.535156 393.515625 614.859375 395.511719 613.085938 397.417969 C 611.15625 399.207031 609.140625 400.890625 607.039062 402.476562 C 604.941406 404.058594 602.765625 405.53125 600.519531 406.894531 C 598.269531 408.257812 595.957031 409.507812 593.585938 410.636719 C 591.210938 411.769531 588.785156 412.777344 586.308594 413.660156 C 583.832031 414.546875 581.320312 415.304688 578.765625 415.9375 C 576.214844 416.570312 573.636719 417.070312 571.035156 417.441406 C 568.429688 417.8125 565.816406 418.050781 563.1875 418.160156 C 560.558594 418.265625 557.933594 418.242188 555.308594 418.082031 L 440.261719 418.082031 C 439.972656 418.125 439.683594 418.148438 439.390625 418.15625 C 439.097656 418.164062 438.808594 418.15625 438.515625 418.128906 C 438.226562 418.101562 437.9375 418.058594 437.652344 418 C 437.367188 417.941406 437.085938 417.863281 436.808594 417.769531 C 436.53125 417.679688 436.257812 417.570312 435.996094 417.445312 C 435.730469 417.324219 435.472656 417.183594 435.226562 417.03125 C 434.976562 416.878906 434.738281 416.710938 434.507812 416.527344 C 434.28125 416.347656 434.0625 416.152344 433.855469 415.945312 C 433.648438 415.742188 433.457031 415.523438 433.273438 415.292969 C 433.09375 415.0625 432.925781 414.824219 432.773438 414.578125 C 432.621094 414.328125 432.480469 414.070312 432.355469 413.808594 C 432.234375 413.542969 432.125 413.273438 432.03125 412.996094 C 431.941406 412.71875 431.863281 412.4375 431.804688 412.148438 C 431.746094 411.863281 431.703125 411.574219 431.675781 411.285156 C 431.648438 410.992188 431.640625 410.703125 431.648438 410.410156 C 431.65625 410.117188 431.679688 409.828125 431.722656 409.539062 Z M 783.1875 418.082031 L 690.746094 418.082031 C 690.457031 418.125 690.167969 418.148438 689.875 418.15625 C 689.582031 418.164062 689.292969 418.15625 689 418.128906 C 688.710938 418.101562 688.421875 418.058594 688.136719 418 C 687.851562 417.941406 687.570312 417.863281 687.292969 417.769531 C 687.015625 417.679688 686.746094 417.570312 686.480469 417.445312 C 686.214844 417.324219 685.960938 417.183594 685.710938 417.03125 C 685.460938 416.878906 685.222656 416.710938 684.996094 416.527344 C 684.765625 416.347656 684.546875 416.152344 684.34375 415.945312 C 684.136719 415.742188 683.941406 415.523438 683.761719 415.292969 C 683.578125 415.0625 683.410156 414.824219 683.257812 414.578125 C 683.105469 414.328125 682.964844 414.070312 682.84375 413.808594 C 682.71875 413.542969 682.609375 413.273438 682.519531 412.996094 C 682.425781 412.71875 682.351562 412.4375 682.289062 412.148438 C 682.230469 411.863281 682.1875 411.574219 682.160156 411.285156 C 682.136719 410.992188 682.125 410.703125 682.132812 410.410156 C 682.140625 410.117188 682.164062 409.828125 682.207031 409.539062 L 682.207031 384.910156 C 682.207031 379.546875 685.054688 376.867188 690.746094 376.867188 L 775.191406 376.867188 C 796.960938 376.867188 807.847656 369.328125 807.847656 354.246094 L 807.847656 348.273438 C 807.785156 346.546875 807.585938 344.835938 807.257812 343.144531 C 806.929688 341.449219 806.472656 339.789062 805.890625 338.164062 C 805.304688 336.542969 804.597656 334.972656 803.769531 333.460938 C 802.941406 331.945312 802 330.503906 800.949219 329.136719 C 799.898438 327.769531 798.746094 326.488281 797.496094 325.300781 C 796.246094 324.109375 794.910156 323.023438 793.492188 322.042969 C 792.074219 321.058594 790.589844 320.191406 789.039062 319.4375 C 787.484375 318.6875 785.882812 318.058594 784.234375 317.554688 L 729.472656 291.417969 C 722.351562 288.4375 715.652344 284.699219 709.378906 280.203125 C 703.101562 275.707031 697.40625 270.5625 692.296875 264.777344 C 690.28125 262.039062 688.511719 259.152344 686.988281 256.113281 C 685.46875 253.074219 684.214844 249.925781 683.230469 246.671875 C 682.246094 243.417969 681.546875 240.105469 681.128906 236.730469 C 680.710938 233.355469 680.582031 229.972656 680.742188 226.574219 C 680.742188 183.347656 704.6875 161.734375 752.582031 161.734375 L 835.980469 161.734375 C 841.339844 161.734375 844.019531 164.582031 844.019531 170.28125 L 844.019531 194.910156 C 844.019531 200.605469 841.339844 203.453125 835.980469 203.453125 L 762.632812 203.453125 C 758.585938 203.210938 754.597656 203.566406 750.660156 204.515625 C 746.71875 205.46875 743.007812 206.976562 739.519531 209.039062 C 738.300781 209.699219 737.191406 210.511719 736.191406 211.476562 C 735.1875 212.441406 734.335938 213.519531 733.628906 214.714844 C 732.917969 215.910156 732.382812 217.175781 732.019531 218.515625 C 731.65625 219.855469 731.476562 221.222656 731.484375 222.609375 L 731.484375 228.195312 C 731.484375 238.917969 740.023438 248.300781 757.105469 256.34375 L 812.367188 284.492188 C 815.957031 285.816406 819.425781 287.40625 822.773438 289.261719 C 826.121094 291.121094 829.308594 293.21875 832.332031 295.566406 C 835.355469 297.910156 838.1875 300.472656 840.820312 303.25 C 843.453125 306.027344 845.859375 308.988281 848.039062 312.136719 C 849.828125 315.199219 851.390625 318.375 852.726562 321.664062 C 854.0625 324.953125 855.15625 328.320312 856.003906 331.765625 C 856.855469 335.214844 857.453125 338.703125 857.804688 342.234375 C 858.152344 345.765625 858.246094 349.304688 858.085938 352.851562 C 858.058594 396.339844 833.09375 418.082031 783.1875 418.082031 Z M 783.1875 418.082031 " fill-opacity="1" fill-rule="nonzero"></path>
  </g>
  <g clip-path="url(#3e2b118b49)">
    <g clip-path="url(#e35e604a6c)">
      <path fill="url(#b7a2f0625c)" d="M 80.671875 423.136719 L 80.671875 27.136719 L 380.714844 27.136719 L 380.714844 423.136719 Z M 80.671875 423.136719 " fill-rule="nonzero"></path>
    </g>
  </g>
  <g clip-path="url(#cc394dab26)">
    <path stroke-linecap="butt" transform="matrix(13.95539, 0, 0, 13.962343, -1026.449792, -42.673881)" fill="none" stroke-linejoin="miter" d="M 95.924003 12.106088 C 95.93296 12.205126 95.939398 12.304725 95.943596 12.404043 C 95.947795 12.503641 95.949194 12.60324 95.948635 12.702838 C 95.947795 12.802436 95.944436 12.902034 95.938838 13.001353 C 95.93296 13.100951 95.924842 13.20027 95.914206 13.299308 C 95.903569 13.398347 95.890693 13.497106 95.875298 13.595305 C 95.859623 13.693785 95.841989 13.791704 95.821556 13.889344 C 95.801402 13.986984 95.778729 14.083784 95.753538 14.180305 C 95.728626 14.276546 95.701194 14.372508 95.671244 14.46735 C 95.641574 14.562472 95.609384 14.656754 95.575235 14.750198 C 95.540806 14.843921 95.504138 14.936525 95.464951 15.02801 C 95.426043 15.119774 95.384896 15.21042 95.34151 15.300226 C 95.298124 15.389753 95.252499 15.47816 95.204634 15.565728 C 95.15677 15.653017 95.106946 15.739186 95.054883 15.824236 C 95.002819 15.909286 94.948797 15.992938 94.892815 16.07519 C 94.836553 16.157443 94.778332 16.238296 94.718431 16.317751 C 94.658251 16.397206 94.596111 16.474982 94.532291 16.551359 C 94.468192 16.627737 94.402413 16.702435 94.334675 16.775735 C 94.267217 16.848755 94.197799 16.920376 94.126702 16.990039 C 94.055605 17.059702 93.982548 17.127686 93.908092 17.193712 C 93.833636 17.260018 93.757501 17.324085 93.679966 17.386474 C 93.602151 17.449142 93.523216 17.509573 93.442602 17.568045 C 93.361988 17.626517 93.279975 17.68303 93.196562 17.737306 C 93.113149 17.791861 93.028336 17.844178 92.942404 17.894537 C 92.856471 17.944895 92.769139 17.993016 92.680968 18.038898 C 92.592516 18.08506 92.502945 18.128705 92.412534 18.17039 C 92.322124 18.212076 92.230593 18.251244 92.137943 18.288453 C 92.045573 18.325663 91.952363 18.360354 91.858033 18.392808 C 91.763983 18.425261 91.669094 18.455476 91.573365 18.483453 C 91.477636 18.511151 91.381347 18.53661 91.284498 18.559831 C 91.187649 18.582772 91.090241 18.603475 90.992272 18.62194 C 90.894304 18.640125 90.796055 18.656072 90.697527 18.669501 C 90.598719 18.68293 90.499631 18.694121 90.400543 18.702514 C 90.301175 18.711187 90.201807 18.717341 90.102159 18.720978 C 90.002791 18.724895 89.903143 18.726014 89.803495 18.724895 C 89.703847 18.723496 89.604479 18.719859 89.504832 18.713984 C 89.405464 18.707829 89.306376 18.699156 89.207288 18.688245 C 89.108199 18.677334 89.009671 18.663905 88.911143 18.647958 C 88.812895 18.632291 88.714926 18.613826 88.617518 18.593403 C 88.520109 18.5727 88.42326 18.549479 88.326971 18.52402 C 88.230682 18.498841 88.134953 18.470864 88.040064 18.440928 C 87.945174 18.410713 87.850845 18.37826 87.757635 18.343568 C 87.664145 18.308597 87.571775 18.271667 87.480244 18.23222 C 87.388714 18.193052 87.298023 18.151366 87.208732 18.107722 C 87.119161 18.063798 87.030709 18.017916 86.943657 17.969795 C 86.856325 17.921675 86.770393 17.871596 86.68558 17.818999 C 86.600768 17.766682 86.517355 17.712406 86.435341 17.655893 C 86.353327 17.599379 86.272713 17.540907 86.193499 17.480477 C 86.114284 17.420046 86.036749 17.357937 85.960614 17.29359 C 85.884479 17.229243 85.809743 17.163217 85.736966 17.095233 C 85.66419 17.027249 85.592813 16.957586 85.523395 16.886244 C 85.453977 16.814903 85.386239 16.741883 85.32046 16.666904 C 85.254682 16.592206 85.190582 16.516108 85.128722 16.438052 C 85.066582 16.360276 85.006402 16.280821 84.94818 16.199968 C 84.889959 16.119114 84.833977 16.036861 84.779675 15.95321 C 84.725652 15.869559 84.673589 15.784788 84.623485 15.698619 C 84.573661 15.61245 84.525796 15.524882 84.480171 15.436474 C 84.434546 15.347787 84.39088 15.258261 84.349733 15.167615 C 84.308586 15.076969 84.269399 14.985205 84.232731 14.892601 C 84.196063 14.799997 84.161634 14.706553 84.129444 14.612271 C 84.097255 14.517988 84.067584 14.423146 84.040153 14.327185 C 84.012442 14.231503 83.98753 14.135262 83.964857 14.038182 C 83.941905 13.941102 83.921751 13.843741 83.903837 13.745542 C 83.885923 13.647622 83.870248 13.549423 83.857372 13.450664 C 83.844216 13.351905 83.83358 13.252866 83.825462 13.153548 C 83.817065 13.054229 83.811467 12.954911 83.808108 12.855313 C 83.804749 12.755714 83.803909 12.656116 83.805589 12.556518 C 83.806988 12.45692 83.811187 12.357321 83.817625 12.258003 C 83.824063 12.158685 83.83302 12.059366 83.844496 11.960327 C 83.855692 11.861289 83.869408 11.762809 83.885643 11.66461 C 83.901878 11.566131 83.920632 11.468491 83.941625 11.371131 C 83.962618 11.273771 83.98613 11.17697 84.011882 11.080729 C 84.037634 10.984488 84.065905 10.888807 84.096415 10.793965 C 84.126925 10.699122 84.159674 10.60512 84.194943 10.511956 C 84.229932 10.418793 84.26744 10.326468 84.306907 10.234983 C 84.346654 10.143778 84.388641 10.053412 84.432587 9.964166 C 84.476812 9.874639 84.522997 9.786511 84.571702 9.699503 C 84.620126 9.612494 84.67051 9.526605 84.723413 9.442114 C 84.776036 9.357623 84.830618 9.274252 84.88744 9.192559 C 84.944262 9.110586 85.003043 9.030292 85.063783 8.951397 C 85.124523 8.872222 85.187223 8.795005 85.251603 8.718908 C 85.316262 8.64309 85.3826 8.568951 85.450898 8.49621 C 85.518916 8.42375 85.588894 8.352688 85.660551 8.283585 C 85.732208 8.214482 85.805544 8.147057 85.88056 8.081591 C 85.955576 8.015845 86.032271 7.952337 86.110366 7.890508 C 86.188461 7.828678 86.268235 7.768808 86.349129 7.710895 C 86.430303 7.652983 86.512876 7.597308 86.596569 7.543592 C 86.680542 7.489597 86.765635 7.437839 86.851847 7.38832 C 86.938339 7.3388 87.025951 7.291239 87.114682 7.245917 C 87.203133 7.200594 87.292985 7.157509 87.383955 7.116663 C 87.474646 7.075537 87.566456 7.036928 87.659386 7.000558 C 87.752037 6.964188 87.845526 6.930056 87.939856 6.898442 C 88.034466 6.866548 88.129635 6.837172 88.225364 6.810034 C 88.321373 6.782897 88.417662 6.758277 88.514791 6.735895 C 88.611919 6.713514 88.709328 6.69365 88.807576 6.676024 C 88.905545 6.658679 89.004073 6.643571 89.102881 6.630702 C 89.201689 6.618112 89.300777 6.60776 89.399865 6.599927 C 89.498394 6.591814 89.596922 6.585659 89.69573 6.582301 C 89.794538 6.578944 89.893346 6.577825 89.991875 6.579224 C 90.090683 6.580623 90.189491 6.58426 90.288019 6.590415 C 90.386547 6.59657 90.485076 6.605243 90.583324 6.616433 C 90.681292 6.627344 90.779261 6.640773 90.876669 6.65672 C 90.974358 6.672667 91.071207 6.690852 91.168056 6.711275 C 91.264624 6.731978 91.360633 6.75492 91.456083 6.780379 C 91.551532 6.805558 91.646421 6.833255 91.740471 6.863191 C 91.834521 6.893126 91.928011 6.92558 92.020661 6.959991 C 92.113031 6.994683 92.204841 7.031333 92.295532 7.070501 C 92.386223 7.109389 92.475794 7.150795 92.564525 7.194159 C 92.653257 7.237803 92.740869 7.283406 92.827361 7.330967 C 92.913853 7.378808 92.999225 7.428607 93.083198 7.480644 C 93.167171 7.532681 93.250024 7.586677 93.331198 7.642631 C 93.412652 7.698585 93.492706 7.756498 93.571081 7.816648 C 93.649736 7.876519 93.726711 7.938348 93.802286 8.001856 C 93.877582 8.065644 93.951478 8.13111 94.023975 8.198535 C 94.096192 8.265959 94.166729 8.335063 94.235587 8.405845 C 94.304445 8.476627 94.371623 8.549087 94.436842 8.623226 C 94.502341 8.697365 94.5656 8.772903 94.62746 8.85012 C 94.689041 8.927337 94.748661 9.005952 94.806323 9.086246 C 94.864264 9.166261 94.919966 9.247953 94.973709 9.330766 C 95.027452 9.413578 95.079235 9.497788 95.128779 9.583118 C 95.178323 9.668728 95.225908 9.755177 95.271253 9.843025 C 95.316598 9.930873 95.359704 10.01956 95.400851 10.109366 C 95.441718 10.199173 95.480625 10.290098 95.517014 10.381863 C 95.553682 10.473628 95.587831 10.566232 95.620021 10.659675 C 95.65193 10.753118 95.681601 10.847401 95.709032 10.942243 C 95.736463 11.037365 95.761375 11.132767 95.784048 11.229008 C 95.80672 11.324969 95.827154 11.421769 95.845068 11.51885 C 95.862982 11.61593 95.878657 11.71357 95.891813 11.811489 C 95.904969 11.909409 95.915605 12.007609 95.924003 12.106088 Z M 95.924003 12.106088 " stroke="#1e1e1e" stroke-width="1" stroke-opacity="1" stroke-miterlimit="4"></path>
  </g>
  <path fill="#044044" d="M 241.160156 244.742188 C 241.160156 245.65625 241.070312 246.566406 240.890625 247.464844 C 240.714844 248.363281 240.449219 249.238281 240.097656 250.085938 C 239.746094 250.929688 239.316406 251.734375 238.808594 252.496094 C 238.300781 253.261719 237.71875 253.964844 237.074219 254.613281 C 236.425781 255.261719 235.71875 255.839844 234.957031 256.351562 C 234.195312 256.859375 233.390625 257.289062 232.546875 257.640625 C 231.699219 257.992188 230.824219 258.257812 229.925781 258.433594 C 229.027344 258.613281 228.121094 258.703125 227.203125 258.703125 C 226.289062 258.703125 225.378906 258.613281 224.480469 258.433594 C 223.582031 258.257812 222.710938 257.992188 221.863281 257.640625 C 221.015625 257.289062 220.214844 256.859375 219.453125 256.351562 C 218.691406 255.839844 217.984375 255.261719 217.335938 254.613281 C 216.6875 253.964844 216.109375 253.261719 215.601562 252.496094 C 215.09375 251.734375 214.664062 250.929688 214.3125 250.085938 C 213.960938 249.238281 213.695312 248.363281 213.515625 247.464844 C 213.339844 246.566406 213.25 245.65625 213.25 244.742188 C 213.25 243.824219 213.339844 242.917969 213.515625 242.015625 C 213.695312 241.117188 213.960938 240.246094 214.3125 239.398438 C 214.664062 238.550781 215.09375 237.746094 215.601562 236.984375 C 216.109375 236.222656 216.6875 235.515625 217.335938 234.867188 C 217.984375 234.21875 218.691406 233.640625 219.453125 233.132812 C 220.214844 232.621094 221.015625 232.191406 221.863281 231.839844 C 222.710938 231.492188 223.582031 231.226562 224.480469 231.046875 C 225.378906 230.867188 226.289062 230.777344 227.203125 230.777344 C 228.121094 230.777344 229.027344 230.867188 229.925781 231.046875 C 230.824219 231.226562 231.699219 231.492188 232.546875 231.839844 C 233.390625 232.191406 234.195312 232.621094 234.957031 233.132812 C 235.71875 233.640625 236.425781 234.21875 237.074219 234.867188 C 237.71875 235.515625 238.300781 236.222656 238.808594 236.984375 C 239.316406 237.746094 239.746094 238.550781 240.097656 239.398438 C 240.449219 240.246094 240.714844 241.117188 240.890625 242.015625 C 241.070312 242.917969 241.160156 243.824219 241.160156 244.742188 Z M 241.160156 244.742188 " fill-opacity="1" fill-rule="nonzero"></path>
  <g clip-path="url(#077c210fb7)">
    <path stroke-linecap="butt" transform="matrix(13.95539, 0, 0, 13.962343, -889.952155, 27.137836)" fill="none" stroke-linejoin="miter" d="M 84.551997 7.585054 C 84.551997 7.732493 84.54472 7.879373 84.530444 8.025973 C 84.515889 8.172852 84.494336 8.318333 84.465505 8.462974 C 84.436675 8.607335 84.401126 8.750298 84.3583 8.891302 C 84.315474 9.032307 84.26593 9.170793 84.209388 9.307041 C 84.153126 9.443289 84.090146 9.57618 84.020729 9.706273 C 83.951031 9.836367 83.875455 9.962543 83.793722 10.085083 C 83.711708 10.207622 83.624096 10.325965 83.530607 10.439831 C 83.437117 10.553698 83.338309 10.662808 83.233902 10.766883 C 83.129776 10.871237 83.020611 10.969996 82.906688 11.06344 C 82.792764 11.157163 82.674642 11.244731 82.552042 11.326703 C 82.429442 11.408396 82.303202 11.484214 82.173324 11.553597 C 82.043166 11.62298 81.910209 11.685929 81.774173 11.742442 C 81.637857 11.798956 81.499301 11.848475 81.358227 11.89128 C 81.217152 11.934085 81.074398 11.969896 80.929965 11.998432 C 80.785251 12.027249 80.639698 12.048791 80.493026 12.063339 C 80.346353 12.077887 80.1994 12.084881 80.051888 12.084881 C 79.904655 12.084881 79.757703 12.077887 79.61103 12.063339 C 79.464357 12.048791 79.318524 12.027249 79.174091 11.998432 C 79.029657 11.969896 78.886623 11.934085 78.745829 11.89128 C 78.604754 11.848475 78.466199 11.798956 78.329883 11.742442 C 78.193847 11.685929 78.06061 11.62298 77.930732 11.553597 C 77.800853 11.484214 77.674614 11.408396 77.552014 11.326703 C 77.429413 11.244731 77.311291 11.157163 77.197368 11.06344 C 77.083445 10.969996 76.97428 10.871237 76.870153 10.766883 C 76.765747 10.662808 76.666939 10.553698 76.573449 10.439831 C 76.479959 10.325965 76.392347 10.207622 76.310334 10.085083 C 76.2286 9.962543 76.152745 9.836367 76.083327 9.706273 C 76.013909 9.57618 75.95093 9.443289 75.894668 9.307041 C 75.838126 9.170793 75.788582 9.032307 75.745756 8.891302 C 75.70293 8.750298 75.667101 8.607335 75.63855 8.462974 C 75.60972 8.318333 75.588167 8.172852 75.573611 8.025973 C 75.559336 7.879373 75.552058 7.732493 75.552058 7.585054 C 75.552058 7.437615 75.559336 7.290456 75.573611 7.143857 C 75.588167 6.997257 75.60972 6.851776 75.63855 6.707135 C 75.667101 6.562494 75.70293 6.419811 75.745756 6.278807 C 75.788582 6.137802 75.838126 5.999036 75.894668 5.862788 C 75.95093 5.72682 76.013909 5.593649 76.083327 5.463835 C 76.152745 5.333742 76.2286 5.207566 76.310334 5.085026 C 76.392347 4.962487 76.479959 4.844144 76.573449 4.730278 C 76.666939 4.616411 76.765747 4.507301 76.870153 4.402946 C 76.97428 4.298872 77.083445 4.199833 77.197368 4.10639 C 77.311291 4.012946 77.429413 3.925378 77.552014 3.843405 C 77.674614 3.761433 77.800853 3.685895 77.930732 3.616232 C 78.06061 3.546849 78.193847 3.4839 78.329883 3.427667 C 78.466199 3.371153 78.604754 3.321634 78.745829 3.278829 C 78.886623 3.236024 79.029657 3.200213 79.174091 3.171397 C 79.318524 3.142581 79.464357 3.121038 79.61103 3.10677 C 79.757703 3.092222 79.904655 3.084948 80.051888 3.084948 C 80.1994 3.084948 80.346353 3.092222 80.493026 3.10677 C 80.639698 3.121038 80.785251 3.142581 80.929965 3.171397 C 81.074398 3.200213 81.217152 3.236024 81.358227 3.278829 C 81.499301 3.321634 81.637857 3.371153 81.774173 3.427667 C 81.910209 3.4839 82.043166 3.546849 82.173324 3.616232 C 82.303202 3.685895 82.429442 3.761433 82.552042 3.843405 C 82.674642 3.925378 82.792764 4.012946 82.906688 4.10639 C 83.020611 4.199833 83.129776 4.298872 83.233902 4.402946 C 83.338309 4.507301 83.437117 4.616411 83.530607 4.730278 C 83.624096 4.844144 83.711708 4.962487 83.793722 5.085026 C 83.875455 5.207566 83.951031 5.333742 84.020729 5.463835 C 84.090146 5.593649 84.153126 5.72682 84.209388 5.862788 C 84.26593 5.999036 84.315474 6.137802 84.3583 6.278807 C 84.401126 6.419811 84.436675 6.562494 84.465505 6.707135 C 84.494336 6.851776 84.515889 6.997257 84.530444 7.143857 C 84.54472 7.290456 84.551997 7.437615 84.551997 7.585054 Z M 84.551997 7.585054 " stroke="#1e1e1e" stroke-width="1" stroke-opacity="1" stroke-miterlimit="4"></path>
  </g>
  <path fill="#044044" d="M 241.160156 286.628906 C 241.160156 287.542969 241.070312 288.453125 240.890625 289.351562 C 240.714844 290.25 240.449219 291.125 240.097656 291.972656 C 239.746094 292.816406 239.316406 293.621094 238.808594 294.386719 C 238.300781 295.148438 237.71875 295.851562 237.074219 296.5 C 236.425781 297.148438 235.71875 297.726562 234.957031 298.238281 C 234.195312 298.746094 233.390625 299.175781 232.546875 299.527344 C 231.699219 299.878906 230.824219 300.144531 229.925781 300.320312 C 229.027344 300.5 228.121094 300.589844 227.203125 300.589844 C 226.289062 300.589844 225.378906 300.5 224.480469 300.320312 C 223.582031 300.144531 222.710938 299.878906 221.863281 299.527344 C 221.015625 299.175781 220.214844 298.746094 219.453125 298.238281 C 218.691406 297.726562 217.984375 297.148438 217.335938 296.5 C 216.6875 295.851562 216.109375 295.148438 215.601562 294.386719 C 215.09375 293.621094 214.664062 292.816406 214.3125 291.972656 C 213.960938 291.125 213.695312 290.25 213.515625 289.351562 C 213.339844 288.453125 213.25 287.542969 213.25 286.628906 C 213.25 285.710938 213.339844 284.804688 213.515625 283.902344 C 213.695312 283.003906 213.960938 282.132812 214.3125 281.285156 C 214.664062 280.4375 215.09375 279.632812 215.601562 278.871094 C 216.109375 278.109375 216.6875 277.402344 217.335938 276.753906 C 217.984375 276.105469 218.691406 275.527344 219.453125 275.019531 C 220.214844 274.507812 221.015625 274.078125 221.863281 273.726562 C 222.710938 273.378906 223.582031 273.113281 224.480469 272.933594 C 225.378906 272.753906 226.289062 272.664062 227.203125 272.664062 C 228.121094 272.664062 229.027344 272.753906 229.925781 272.933594 C 230.824219 273.113281 231.699219 273.378906 232.546875 273.726562 C 233.390625 274.078125 234.195312 274.507812 234.957031 275.019531 C 235.71875 275.527344 236.425781 276.105469 237.074219 276.753906 C 237.71875 277.402344 238.300781 278.109375 238.808594 278.871094 C 239.316406 279.632812 239.746094 280.4375 240.097656 281.285156 C 240.449219 282.132812 240.714844 283.003906 240.890625 283.902344 C 241.070312 284.804688 241.160156 285.710938 241.160156 286.628906 Z M 241.160156 286.628906 " fill-opacity="1" fill-rule="nonzero"></path>
</svg>
